<?xml version="1.0" encoding="UTF-8"?><svg id="uuid-49fa84f5-d6a9-42ef-b7ba-df2ae5dd7b80" xmlns="http://www.w3.org/2000/svg" viewBox="0 0 1920 1080"><defs><style>.uuid-0b11fdc8-54a6-4f5e-9424-8d7c65a4edd3{fill:#fff;}</style></defs><g id="uuid-74eac566-5b40-4a53-aa21-02ee1006fd25"><path class="uuid-0b11fdc8-54a6-4f5e-9424-8d7c65a4edd3" d="m803.49,760.42c6.01-17.36,12.41-33.19,16.88-49.55,4-14.63,1.57-27.69-8.43-41.19-48-64.81-49.77-151.3-6.09-217.91,42.56-64.89,122.26-98.1,197.36-82.23,78.86,16.67,137.54,78.13,150.69,157.86,22.32,135.27-104.73,249.45-237.97,213.36-13.51-3.66-23.57-3.47-35.39,5.53-21.26,16.19-45.36,19.48-77.05,14.13Zm92.98-202.9c.46-15.29-12.11-28.59-27.46-29.06-15.13-.47-28.66,12.36-29.05,27.57-.4,15.3,12.19,28.49,27.57,28.87,15.48.39,28.48-11.91,28.95-27.38Zm165.83-29.1c-15.24-.04-28.22,13.01-28.17,28.32.05,15.63,12.54,28.16,28.1,28.19,15.44.03,28.39-12.75,28.44-28.09.05-14.98-13.33-28.39-28.37-28.42Zm-99.69,56.4c15.75,1.32,29.09-9.83,30.41-25.42,1.33-15.8-9.61-29.23-25.15-30.86-15.13-1.59-29,10.08-30.48,25.63-1.48,15.57,9.86,29.37,25.22,30.66Z"/></g><g><path class="uuid-0b11fdc8-54a6-4f5e-9424-8d7c65a4edd3" d="m685.24,517.68c-2.45,3.11-5.49,5.3-9.1,6.56-3.61,1.27-7.55,1.48-11.81.64l-16.76-3.31c-4.2-.83-7.72-2.52-10.55-5.06-2.83-2.54-4.79-5.71-5.88-9.52-1.09-3.81-1.18-7.98-.29-12.51.9-4.53,2.51-8.37,4.86-11.5,2.34-3.13,5.21-5.35,8.6-6.66,3.39-1.31,7.08-1.58,11.06-.79.5.1.72.57.67,1.42l-1.76,13.27-.05.25c-.13.66-.5.94-1.11.82-2.27-.45-4.21-.14-5.83.92-1.62,1.06-2.64,2.7-3.08,4.91-.44,2.21-.11,4.12.98,5.71,1.09,1.6,2.77,2.62,5.04,3.06l17.84,3.52c2.21.44,4.13.12,5.74-.93,1.62-1.06,2.64-2.7,3.08-4.91.44-2.21.11-4.12-.98-5.71-1.09-1.59-2.75-2.61-4.96-3.05-.33-.07-.56-.23-.68-.48-.12-.25-.12-.57.01-.95l3.25-12.98c.22-.82.58-1.18,1.08-1.08,3.98.79,7.31,2.43,9.97,4.94,2.67,2.51,4.5,5.66,5.5,9.45,1,3.79,1.06,7.95.16,12.49-.9,4.54-2.57,8.36-5.02,11.46Z"/><path class="uuid-0b11fdc8-54a6-4f5e-9424-8d7c65a4edd3" d="m653.87,424.03c-.12-.29-.11-.62.04-.99l5.06-12.36c.15-.36.37-.61.67-.73.29-.12.62-.11.99.04l52.43,21.47c.37.15.61.37.73.67.12.29.11.62-.04.99l-5.06,12.36c-.15.37-.37.61-.67.73-.29.12-.62.11-.99-.04l-19.88-8.14c-.26-.11-.44-.03-.55.23l-5,12.21c-.11.26-.03.45.23.55l19.88,8.14c.37.15.61.37.73.67.12.29.11.62-.04.99l-5.06,12.36c-.15.37-.37.61-.67.73-.29.12-.62.11-.99-.04l-52.43-21.47c-.36-.15-.61-.37-.73-.67-.12-.29-.11-.62.04-.99l5.06-12.36c.15-.36.37-.61.67-.73.29-.12.62-.11.99.04l19.17,7.85c.26.11.44.03.55-.23l5-12.21c.11-.26.03-.44-.23-.55l-19.17-7.85c-.36-.15-.61-.37-.73-.67Z"/><path class="uuid-0b11fdc8-54a6-4f5e-9424-8d7c65a4edd3" d="m738.84,391.35l-6.5-2.16c-.25-.03-.42.02-.52.16l-10.07,14.83c-.09.14-.08.32.04.54l4.41,5.24c.51.55.55,1.15.1,1.81l-8.12,11.97c-.57.84-1.17.88-1.81.1l-36.93-46.63c-.43-.57-.44-1.15-.03-1.76l10.07-14.83c.41-.61.96-.81,1.65-.62l56.97,17.1c.12.02.28.09.47.21.51.35.55.85.1,1.5l-8.12,11.97c-.44.65-1.01.84-1.72.57Zm-25.12,2.98l5.94-8.75c.19-.28.11-.47-.23-.56l-18.71-6.16c-.17-.05-.29-.03-.35.07-.06.09-.04.21.07.35l12.68,15.04c.25.24.45.24.61,0Z"/><path class="uuid-0b11fdc8-54a6-4f5e-9424-8d7c65a4edd3" d="m739.53,304.29c.32,0,.62.13.9.41l8,7.79c.28.28.43.57.43.89,0,.32-.13.62-.41.9l-9.91,10.18c-.2.2-.19.4,0,.6l31.38,30.56c.28.28.43.57.43.89,0,.32-.13.62-.41.9l-9.32,9.57c-.28.28-.57.43-.89.43-.32,0-.62-.13-.9-.41l-31.38-30.56c-.2-.2-.4-.19-.6,0l-9.62,9.88c-.28.28-.57.43-.89.43-.32,0-.62-.13-.9-.41l-8-7.79c-.28-.27-.43-.57-.43-.89,0-.32.13-.62.41-.9l31.21-32.05c.27-.28.57-.43.89-.43Z"/><path class="uuid-0b11fdc8-54a6-4f5e-9424-8d7c65a4edd3" d="m802.83,292.76c2.89-.29,5.45.12,7.67,1.25s4.23,2.96,6,5.51c3.32,4.76,4.1,9.43,2.33,13.99-1.77,4.56-5.31,8.7-10.63,12.41l-18.66,13.01c-.32.23-.64.31-.96.25-.31-.06-.58-.25-.81-.57l-32.39-46.49c-.23-.32-.31-.64-.25-.96.06-.31.25-.58.57-.81l18.04-12.57c5.92-4.13,11.11-6.18,15.56-6.15,4.45.03,8.4,2.51,11.85,7.46,3.06,4.4,3.53,8.81,1.4,13.25-.09.27,0,.41.29.42Zm-27.1.75l4.83,6.94c.16.23.36.27.59.11l5.69-3.96c3.38-2.35,4.18-4.8,2.41-7.35-1.77-2.54-4.35-2.64-7.72-.29l-5.69,3.96c-.23.16-.27.36-.11.59Zm26.77,13.71c-1.81-2.59-4.33-2.76-7.56-.5l-6.38,4.45c-.23.16-.27.36-.11.59l5.08,7.29c.16.23.36.27.59.1l6.31-4.4c3.28-2.29,3.98-4.8,2.07-7.53Z"/><path class="uuid-0b11fdc8-54a6-4f5e-9424-8d7c65a4edd3" d="m843.62,302.73c-4.04-.29-7.64-1.6-10.82-3.93-3.18-2.33-5.67-5.56-7.49-9.69l-6.39-14.56c-1.77-4.03-2.43-7.98-1.98-11.88.45-3.89,1.93-7.41,4.47-10.55,2.53-3.14,5.94-5.65,10.22-7.54,4.34-1.9,8.52-2.72,12.54-2.46,4.03.26,7.62,1.55,10.79,3.85,3.17,2.3,5.63,5.47,7.4,9.5l6.39,14.56c1.81,4.13,2.5,8.15,2.07,12.07-.44,3.92-1.91,7.46-4.43,10.63-2.52,3.17-5.95,5.7-10.28,7.61-4.29,1.88-8.45,2.68-12.48,2.39Zm11.3-19.28c.69-2,.52-4.18-.52-6.56l-6.66-15.18c-1.04-2.37-2.53-3.98-4.47-4.82-1.94-.84-3.99-.79-6.16.16-2.12.93-3.52,2.39-4.21,4.39-.69,2-.52,4.18.52,6.56l6.66,15.18c1.04,2.38,2.53,3.98,4.47,4.82,1.94.84,3.97.8,6.08-.13,2.17-.95,3.6-2.43,4.29-4.42Z"/><path class="uuid-0b11fdc8-54a6-4f5e-9424-8d7c65a4edd3" d="m916.98,219.87c.27.17.45.45.54.83l2.47,10.89c.09.39.04.71-.12.98-.17.27-.45.45-.83.54l-13.86,3.14c-.28.06-.38.23-.32.51l9.68,42.72c.09.39.04.71-.12.98-.17.27-.45.45-.83.54l-13.03,2.95c-.38.09-.71.05-.98-.12-.27-.17-.45-.45-.54-.83l-9.68-42.72c-.06-.27-.23-.38-.5-.32l-13.44,3.05c-.38.09-.71.05-.98-.12-.27-.17-.45-.45-.54-.83l-2.47-10.89c-.09-.38-.05-.71.12-.98.17-.27.45-.45.83-.54l43.63-9.88c.38-.09.71-.04.98.12Z"/></g><g><path class="uuid-0b11fdc8-54a6-4f5e-9424-8d7c65a4edd3" d="m1061.33,854.08l-4.02-6.61c-.06-.1-.15-.14-.27-.12l-17.01,4.14c-.12.03-.18.1-.19.23l-.53,7.72c-.04.33-.23.54-.57.62l-3.07.75c-.42.1-.62-.07-.61-.52l3.13-41.8c.04-.33.23-.54.57-.62l3.87-.94c.34-.08.61.01.79.29l22.06,35.66.11.21c.06.27-.07.44-.42.52l-3.07.75c-.34.08-.61-.01-.79-.29Zm-21.18-6.2c.07.04.14.06.22.04l14.67-3.58c.08-.02.14-.06.18-.13.04-.07.04-.14-.02-.21l-13.05-21.41c-.06-.07-.12-.09-.2-.07s-.12.07-.14.16l-1.74,25.01c-.02.09,0,.15.08.19Z"/><path class="uuid-0b11fdc8-54a6-4f5e-9424-8d7c65a4edd3" d="m1084.24,802.58l2.77-1.12c.36-.15.62-.04.76.32l14.91,36.91c.15.36.04.62-.32.76l-2.71,1.1c-.25.1-.52.06-.81-.12l-30.68-22.65c-.08-.09-.15-.12-.22-.07-.06.05-.08.12-.03.23l12.13,29.89c.15.36.04.62-.32.76l-2.77,1.12c-.36.15-.62.04-.76-.32l-14.91-36.91c-.15-.36-.04-.62.32-.76l2.71-1.1c.25-.1.52-.06.81.12l30.68,22.65c.08.09.15.12.22.07.06-.05.08-.13.03-.23l-12.13-29.89c-.15-.36-.04-.62.32-.76Z"/><path class="uuid-0b11fdc8-54a6-4f5e-9424-8d7c65a4edd3" d="m1123.4,827.58l-8.67-15.01c-.08-.13-.14-.21-.2-.22l-21.55-12.97c-.15-.1-.24-.18-.28-.25-.12-.2-.02-.39.28-.57l2.74-1.58c.3-.18.57-.17.81,0l17.45,10.54c.05.02.11,0,.18-.04.07-.04.11-.08.12-.14l-.36-20.41c0-.31.13-.55.4-.71l2.74-1.58c.2-.12.37-.13.51-.06.13.08.2.23.2.46l.46,25.15c-.02.05.02.15.1.28l8.67,15.01c.2.34.12.6-.21.8l-2.58,1.49c-.34.2-.61.12-.8-.21Z"/><path class="uuid-0b11fdc8-54a6-4f5e-9424-8d7c65a4edd3" d="m1148.45,803.48c.06.05.14.04.23-.03l12.28-9.29c.15-.12.32-.16.5-.12.18.04.31.15.39.33l2.91,4.92c.09.18.11.37.07.57-.04.2-.14.36-.3.48l-20.36,15.4c-.16.12-.32.16-.5.12-.18-.04-.31-.15-.39-.33l-2.74-4.68c-.17-.36-.23-.69-.16-.98.69-3.75,1.42-8.51,2.19-14.28l.75-5.41c.76-5.47.66-9.06-.3-10.78l-.34-.55c-.73-.96-1.65-1.49-2.77-1.57-1.12-.08-2.23.3-3.36,1.14-1.21.92-1.97,2.04-2.26,3.36-.29,1.33-.08,2.62.63,3.89l.74,1.27c.09.18.12.37.09.56-.03.19-.12.35-.27.46l-5.37,4.06c-.16.12-.32.16-.5.12-.18-.04-.31-.15-.39-.33l-1.38-2.41c-1.46-2.91-1.71-5.94-.72-9.11.98-3.17,2.94-5.86,5.86-8.07,1.96-1.48,3.92-2.42,5.88-2.8s3.78-.24,5.46.42,3.11,1.77,4.28,3.33c1.13,1.49,1.88,3.33,2.25,5.49.37,2.17.4,4.76.09,7.79-.15,1.93-.45,4.23-.87,6.9-.43,2.67-.88,5.34-1.36,8l-.34,1.88c-.02.11,0,.19.07.24Z"/><path class="uuid-0b11fdc8-54a6-4f5e-9424-8d7c65a4edd3" d="m1176.61,787.85c-2.48.76-4.91.82-7.31.16s-4.58-1.99-6.54-4l-9.47-9.65c-1.97-2.01-3.26-4.21-3.87-6.62-.61-2.41-.51-4.83.32-7.28.82-2.45,2.32-4.74,4.5-6.87,2.14-2.11,4.42-3.56,6.83-4.37,2.41-.81,4.78-.92,7.12-.35,2.34.58,4.45,1.82,6.34,3.75.25.25.23.57-.05.95l-4.6,5.09-.08.08c-.28.27-.57.26-.87-.05-1.45-1.48-3.06-2.22-4.84-2.22-1.78,0-3.41.72-4.88,2.17-1.5,1.48-2.27,3.11-2.3,4.88-.03,1.78.68,3.41,2.13,4.88l9.88,10.07c1.42,1.45,3.02,2.17,4.8,2.18,1.78,0,3.42-.73,4.93-2.21,1.47-1.45,2.23-3.06,2.26-4.84.03-1.78-.66-3.39-2.09-4.84-.3-.31-.28-.62.05-.95l5.09-4.59c.14-.14.3-.21.48-.22.18-.01.32.04.43.15,1.89,1.92,3.1,4.07,3.64,6.43.54,2.37.4,4.75-.44,7.16-.84,2.41-2.33,4.66-4.47,6.77-2.17,2.13-4.5,3.58-6.98,4.34Z"/><path class="uuid-0b11fdc8-54a6-4f5e-9424-8d7c65a4edd3" d="m1200.23,765.14c-.19.02-.36-.02-.52-.14l-31.18-24.37c-.15-.12-.24-.28-.27-.47-.02-.19.02-.36.14-.52l4.22-5.4c.12-.15.28-.24.47-.27.19-.02.37.03.52.14l25.92,20.26c.15.12.29.1.41-.05l11.79-15.08c.12-.15.28-.24.47-.27.19-.02.36.03.52.14l4.47,3.5c.15.12.24.28.27.47.02.19-.03.36-.14.52l-16.62,21.26c-.12.15-.28.24-.47.27Z"/><path class="uuid-0b11fdc8-54a6-4f5e-9424-8d7c65a4edd3" d="m1224.47,730.18c-2.25,1.37-4.67,2.04-7.26,2.01s-5.14-.79-7.67-2.27l-10.8-6.36c-2.49-1.46-4.37-3.32-5.63-5.55s-1.84-4.67-1.72-7.29c.12-2.62.95-5.25,2.49-7.87,1.56-2.66,3.46-4.67,5.7-6.05,2.24-1.38,4.64-2.06,7.21-2.04s5.1.76,7.59,2.22l10.8,6.36c2.52,1.48,4.43,3.36,5.73,5.61s1.89,4.7,1.77,7.32c-.12,2.63-.96,5.27-2.52,7.92-1.54,2.62-3.45,4.62-5.7,5.99Zm.47-15.11c-.5-1.84-1.73-3.33-3.68-4.48l-11.1-6.53c-1.95-1.15-3.86-1.51-5.71-1.09-1.86.42-3.34,1.58-4.45,3.46-1.09,1.85-1.37,3.69-.84,5.52.53,1.83,1.77,3.32,3.72,4.47l11.1,6.53c1.95,1.15,3.85,1.51,5.69,1.07,1.84-.43,3.3-1.58,4.39-3.43,1.09-1.85,1.38-3.69.88-5.53Z"/><path class="uuid-0b11fdc8-54a6-4f5e-9424-8d7c65a4edd3" d="m1243.3,694.72c-1.95,1.66-4.15,2.68-6.61,3.04-2.45.36-4.96.01-7.52-1.04l-24.68-10.18c-.18-.08-.31-.2-.38-.38-.07-.18-.07-.36,0-.54l2.61-6.33c.07-.18.2-.31.38-.38.18-.07.36-.07.54,0l24.73,10.21c1.91.79,3.7.84,5.35.15s2.88-1.99,3.67-3.9c.79-1.91.84-3.7.15-5.35-.69-1.66-1.99-2.88-3.9-3.67l-24.73-10.21c-.18-.07-.31-.2-.38-.38s-.07-.36,0-.54l2.61-6.33c.07-.18.2-.31.38-.38.18-.07.36-.07.54,0l24.68,10.18c2.56,1.06,4.58,2.58,6.07,4.56,1.48,1.98,2.33,4.25,2.54,6.81.21,2.56-.26,5.23-1.4,8-1.15,2.78-2.7,5-4.65,6.66Z"/><path class="uuid-0b11fdc8-54a6-4f5e-9424-8d7c65a4edd3" d="m1256.39,663.71c-.17.1-.34.12-.53.08l-38.34-9.81c-.19-.05-.33-.15-.43-.32-.1-.17-.12-.34-.08-.53l3.63-14.18c.72-2.84,1.86-5.19,3.41-7.07,1.55-1.88,3.38-3.17,5.5-3.88,2.11-.71,4.36-.76,6.74-.15l15.65,4c2.38.61,4.33,1.73,5.85,3.37,1.52,1.64,2.5,3.65,2.96,6.04.46,2.39.32,5.01-.41,7.84l-3.63,14.18c-.05.19-.15.33-.32.43Zm-4.6-9.79l1.76-6.86c.45-1.74.22-3.3-.68-4.68-.9-1.38-2.32-2.34-4.28-2.88l-13.04-3.34c-1.97-.5-3.67-.37-5.12.41-1.45.78-2.4,2.07-2.87,3.89l-1.74,6.81c-.05.19.02.31.21.36l25.41,6.5c.19.05.31-.02.36-.21Z"/></g></svg>