<?xml version="1.0" encoding="UTF-8"?><svg id="uuid-681d3aba-fb68-4f18-bc05-586324e8cec4" xmlns="http://www.w3.org/2000/svg" viewBox="0 0 1920 1080"><defs><style>.uuid-81e34bba-9a30-4d08-8fb9-6744138e1e5c{fill:#fff;}.uuid-1e15376a-9d2e-4758-965d-d85d15d772cf{fill:#da8f40;}</style></defs><g><g><path class="uuid-81e34bba-9a30-4d08-8fb9-6744138e1e5c" d="m706.8,375.85l-23.95-4.06c-.26-.03-.45.05-.58.25l-2.01,3.09c-.16.25-.12.45.13.61l18.32,11.91c.34.22.55.5.62.82.07.32,0,.66-.23,1l-7.56,11.63c-.22.34-.5.55-.82.62-.32.07-.66,0-1-.23l-49.3-32.05c-.34-.22-.55-.5-.62-.82-.07-.32,0-.66.23-1l14.5-22.3c2.17-3.34,4.76-5.82,7.78-7.45,3.02-1.63,6.22-2.34,9.6-2.13,3.39.21,6.7,1.37,9.94,3.48,3.24,2.1,5.55,4.74,6.94,7.92,1.39,3.17,1.74,6.52,1.05,10.05-.06.31.06.5.37.56l25.5,3.29c.36.09.56.16.61.19.25.16.38.39.4.68.02.29-.07.58-.26.88l-8.04,12.36c-.42.64-.96.88-1.62.72Zm-46.28-13.03l8.61,5.6c.25.16.45.12.61-.13l4.5-6.92c1.02-1.57,1.42-3.12,1.2-4.66-.22-1.54-1.02-2.75-2.39-3.65-1.42-.92-2.88-1.18-4.38-.75-1.5.42-2.75,1.42-3.78,2.99l-4.5,6.92c-.16.25-.12.45.13.61Z"/><path class="uuid-81e34bba-9a30-4d08-8fb9-6744138e1e5c" d="m706.99,286.29c3.39-1.12,6.79-1.23,10.2-.34,3.41.89,6.55,2.72,9.41,5.48,2.82,2.72,4.68,5.77,5.57,9.15.89,3.38.79,6.81-.31,10.31-1.1,3.5-3.13,6.78-6.09,9.86l-6.46,6.7c-.2.21-.2.42.01.62l14.21,13.71c.29.28.44.59.45.92,0,.33-.13.64-.42.94l-9.63,9.98c-.28.29-.59.45-.92.45-.33,0-.64-.13-.94-.42l-42.33-40.82c-.29-.28-.45-.59-.45-.92,0-.33.13-.64.42-.94l17.85-18.51c2.88-2.99,6.02-5.04,9.42-6.16Zm10.36,21.76c.09-1.74-.53-3.26-1.88-4.56-1.39-1.34-2.96-1.94-4.72-1.81-1.76.14-3.39.98-4.89,2.54l-5.12,5.31c-.2.21-.2.42.01.62l8.47,8.16c.21.2.42.2.62-.01l5.12-5.31c1.5-1.56,2.3-3.21,2.39-4.95Z"/><path class="uuid-81e34bba-9a30-4d08-8fb9-6744138e1e5c" d="m789.26,294.5l-5.55-4.45c-.23-.12-.42-.13-.56-.03l-15.14,10.82c-.14.1-.19.28-.15.54l2.41,6.69c.3.72.12,1.32-.55,1.8l-12.21,8.73c-.86.61-1.46.43-1.8-.55l-19.19-58.68c-.22-.71-.02-1.28.6-1.72l15.14-10.82c.62-.44,1.23-.45,1.83-.01l49.32,37.13c.12.06.24.19.38.38.38.52.23,1.02-.44,1.5l-12.21,8.73c-.67.48-1.29.46-1.88-.06Zm-25.53-6.13l8.92-6.38c.29-.2.28-.42-.02-.63l-16-12.72c-.15-.11-.27-.13-.37-.06-.1.07-.12.19-.06.37l6.94,19.21c.16.32.35.4.59.22Z"/></g><g><path class="uuid-81e34bba-9a30-4d08-8fb9-6744138e1e5c" d="m1047.14,847.54l-4.17-6.86c-.07-.11-.16-.15-.28-.12l-17.65,4.29c-.12.03-.18.11-.19.23l-.55,8.01c-.04.34-.24.56-.59.64l-3.19.78c-.43.11-.64-.07-.63-.54l3.26-43.38c.04-.34.24-.56.59-.64l4.01-.98c.35-.09.63.01.82.3l22.89,37.02.12.22c.07.28-.08.46-.43.54l-3.19.78c-.35.09-.63-.01-.82-.3Zm-21.98-6.44c.07.04.15.06.23.04l15.23-3.71c.08-.02.14-.07.18-.14.04-.07.04-.14-.02-.21l-13.54-22.22c-.06-.07-.13-.09-.21-.08-.08.02-.13.07-.15.16l-1.81,25.96c-.02.09,0,.15.08.2Z"/><path class="uuid-81e34bba-9a30-4d08-8fb9-6744138e1e5c" d="m1070.96,794.09l2.87-1.16c.38-.15.64-.04.79.34l15.47,38.31c.15.38.04.64-.34.79l-2.82,1.14c-.26.11-.54.07-.84-.12l-31.84-23.52c-.08-.1-.16-.12-.23-.07-.07.05-.08.13-.03.24l12.59,31.02c.15.38.04.64-.34.79l-2.87,1.16c-.38.15-.64.04-.79-.34l-15.47-38.31c-.15-.38-.04-.64.34-.79l2.82-1.14c.26-.11.54-.06.83.12l31.84,23.51c.08.1.16.12.23.07.07-.05.08-.13.03-.24l-12.59-31.02c-.15-.38-.04-.64.34-.79Z"/><path class="uuid-81e34bba-9a30-4d08-8fb9-6744138e1e5c" d="m1111.6,820.04l-8.99-15.58c-.08-.14-.15-.22-.21-.23l-22.37-13.47c-.15-.1-.25-.18-.29-.25-.12-.21-.02-.41.29-.59l2.84-1.64c.32-.18.6-.18.84,0l18.11,10.95c.05.02.12,0,.19-.04.07-.04.11-.09.13-.14l-.37-21.18c0-.33.14-.57.42-.73l2.84-1.64c.21-.12.39-.14.53-.06.14.08.21.24.21.48l.48,26.11c-.01.06.02.15.1.29l8.99,15.58c.2.35.13.63-.22.83l-2.68,1.55c-.35.2-.63.13-.83-.22Z"/><path class="uuid-81e34bba-9a30-4d08-8fb9-6744138e1e5c" d="m1137.63,795.01c.07.05.15.04.24-.03l12.75-9.64c.16-.12.33-.16.52-.12.18.04.32.15.41.34l3.02,5.1c.09.19.11.38.07.6-.04.21-.15.38-.31.5l-21.13,15.98c-.16.12-.33.16-.52.12-.18-.04-.32-.15-.41-.34l-2.84-4.86c-.18-.37-.23-.71-.16-1.02.71-3.89,1.47-8.83,2.27-14.82l.78-5.62c.79-5.67.68-9.4-.31-11.19l-.36-.57c-.76-1-1.72-1.55-2.87-1.63-1.16-.09-2.32.31-3.48,1.19-1.26.95-2.04,2.12-2.35,3.49-.31,1.37-.09,2.72.65,4.04l.77,1.32c.09.19.12.38.09.58-.03.2-.12.36-.28.48l-5.57,4.22c-.16.12-.33.16-.52.12-.18-.04-.32-.15-.41-.34l-1.43-2.5c-1.52-3.02-1.77-6.17-.75-9.45s3.05-6.08,6.08-8.37c2.04-1.54,4.07-2.51,6.11-2.91,2.04-.4,3.92-.25,5.67.44,1.74.69,3.22,1.84,4.44,3.46,1.17,1.55,1.95,3.45,2.33,5.7.38,2.25.41,4.94.09,8.08-.16,2-.46,4.39-.91,7.16s-.91,5.54-1.41,8.31l-.36,1.95c-.02.11,0,.2.07.25Z"/><path class="uuid-81e34bba-9a30-4d08-8fb9-6744138e1e5c" d="m1166.88,778.78c-2.57.79-5.1.85-7.59.16-2.49-.68-4.75-2.06-6.79-4.15l-9.83-10.02c-2.04-2.08-3.38-4.37-4.02-6.87s-.53-5.02.33-7.56c.85-2.54,2.41-4.92,4.67-7.13,2.23-2.18,4.59-3.69,7.09-4.53s4.96-.96,7.39-.36c2.43.6,4.62,1.89,6.58,3.89.25.26.24.59-.05.99l-4.78,5.28-.09.08c-.29.28-.59.27-.9-.05-1.5-1.53-3.18-2.3-5.03-2.3-1.85,0-3.54.75-5.07,2.25-1.56,1.53-2.36,3.22-2.39,5.07-.03,1.85.7,3.54,2.21,5.07l10.26,10.45c1.47,1.5,3.14,2.26,4.98,2.26,1.85,0,3.55-.76,5.11-2.29,1.53-1.5,2.31-3.18,2.35-5.03.03-1.85-.69-3.52-2.17-5.03-.31-.32-.29-.65.05-.99l5.29-4.76c.14-.14.31-.22.5-.23.19-.01.34.04.45.16,1.96,2,3.22,4.22,3.78,6.67.56,2.46.41,4.93-.46,7.43-.87,2.5-2.42,4.84-4.64,7.02-2.25,2.21-4.67,3.72-7.24,4.51Z"/><path class="uuid-81e34bba-9a30-4d08-8fb9-6744138e1e5c" d="m1191.35,755.25c-.2.03-.38-.03-.54-.15l-32.36-25.3c-.16-.12-.25-.29-.28-.49s.03-.38.15-.54l4.38-5.6c.12-.16.29-.25.49-.28.2-.02.38.03.54.15l26.9,21.04c.16.12.3.11.43-.05l12.24-15.65c.12-.16.29-.25.49-.28.2-.02.38.03.54.15l4.64,3.63c.16.12.25.29.28.49.02.2-.03.38-.15.54l-17.25,22.07c-.12.16-.29.25-.49.28Z"/><path class="uuid-81e34bba-9a30-4d08-8fb9-6744138e1e5c" d="m1216.53,718.94c-2.34,1.42-4.85,2.11-7.54,2.08-2.68-.03-5.34-.82-7.96-2.36l-11.21-6.6c-2.58-1.52-4.53-3.44-5.84-5.77-1.31-2.32-1.91-4.85-1.78-7.57.12-2.72.99-5.45,2.59-8.17,1.62-2.76,3.6-4.85,5.92-6.28,2.32-1.43,4.82-2.13,7.49-2.12s5.29.79,7.88,2.31l11.21,6.6c2.62,1.54,4.6,3.48,5.95,5.83,1.35,2.34,1.96,4.88,1.83,7.6-.12,2.72-1,5.47-2.62,8.22-1.6,2.72-3.58,4.79-5.91,6.21Zm.49-15.68c-.52-1.91-1.8-3.46-3.82-4.65l-11.52-6.78c-2.02-1.19-4-1.57-5.93-1.13-1.93.44-3.47,1.64-4.62,3.59-1.13,1.92-1.42,3.83-.87,5.73.55,1.9,1.84,3.45,3.86,4.64l11.52,6.78c2.02,1.19,3.99,1.56,5.9,1.11,1.91-.45,3.43-1.63,4.56-3.55,1.13-1.92,1.43-3.83.91-5.74Z"/><path class="uuid-81e34bba-9a30-4d08-8fb9-6744138e1e5c" d="m1236.08,682.15c-2.03,1.73-4.31,2.78-6.86,3.15-2.54.38-5.14.01-7.8-1.08l-25.61-10.57c-.19-.08-.32-.21-.4-.39-.08-.18-.08-.37,0-.56l2.71-6.57c.08-.19.21-.32.39-.4.19-.08.37-.08.56,0l25.67,10.59c1.98.82,3.84.87,5.56.16s2.99-2.06,3.81-4.05.87-3.84.16-5.56-2.06-2.99-4.05-3.81l-25.67-10.59c-.19-.08-.32-.21-.4-.39-.08-.18-.08-.37,0-.56l2.71-6.57c.08-.19.21-.32.39-.4.19-.08.37-.08.56,0l25.61,10.57c2.66,1.1,4.76,2.68,6.3,4.74,1.54,2.06,2.42,4.42,2.64,7.07.22,2.65-.27,5.42-1.46,8.31-1.19,2.88-2.8,5.19-4.83,6.92Z"/><path class="uuid-81e34bba-9a30-4d08-8fb9-6744138e1e5c" d="m1249.67,649.96c-.17.1-.36.13-.55.08l-39.79-10.18c-.2-.05-.34-.16-.45-.33s-.13-.36-.08-.55l3.77-14.72c.75-2.94,1.93-5.39,3.54-7.34,1.61-1.95,3.51-3.29,5.7-4.03,2.19-.73,4.53-.79,7-.15l16.25,4.16c2.47.63,4.5,1.8,6.07,3.5,1.57,1.7,2.59,3.79,3.07,6.27.47,2.48.33,5.2-.42,8.14l-3.77,14.72c-.05.2-.16.35-.33.45Zm-4.77-10.16l1.82-7.12c.46-1.8.23-3.42-.7-4.85s-2.41-2.42-4.44-2.99l-13.54-3.47c-2.04-.52-3.81-.38-5.32.43-1.5.81-2.5,2.15-2.98,4.04l-1.81,7.06c-.05.2.02.32.22.37l26.37,6.75c.2.05.32-.02.37-.22Z"/></g><g><path class="uuid-81e34bba-9a30-4d08-8fb9-6744138e1e5c" d="m1047.22,520.41c-6.29-2.18-12.56-4.44-18.83-6.68-3.99-1.42-6.42-4.21-7.88-8.21-2.04-5.58-4.17-11.16-6.76-16.5-2.15-4.43-2.33-8.51-.14-12.89,2.83-5.65,5.46-11.39,8.17-17.09.19-.41.35-.84.56-1.33-.18-.26-.34-.57-.58-.81-4.46-4.48-8.93-8.94-13.38-13.42-.57-.58-1.07-.7-1.86-.31-6.01,2.89-12.07,5.68-18.07,8.6-4.09,1.99-7.94,1.75-12.05-.2-5.23-2.49-10.6-4.74-16.07-6.63-4.51-1.56-7.6-4.17-9.15-8.7-2.13-6.2-4.4-12.35-6.57-18.54-.31-.87-.72-1.26-1.68-1.35-6.22-.59-12.43-.61-18.64,0-.92.09-1.4.39-1.71,1.31-2.12,6.1-4.36,12.16-6.44,18.28-1.47,4.32-4.14,7.39-8.56,8.71-6.03,1.79-11.79,4.2-17.35,7.12-3.71,1.96-7.45,1.93-11.22.13-6.11-2.92-12.24-5.79-18.34-8.72-.79-.38-1.27-.28-1.86.3-4.45,4.48-8.91,8.96-13.4,13.4-.64.64-.53,1.13-.19,1.85,2.89,6.01,5.71,12.06,8.62,18.06,1.9,3.93,1.91,7.78-.15,11.62-2.95,5.5-5.25,11.25-7.07,17.22-1.22,4-3.85,6.69-7.78,8.1-6.32,2.27-12.64,4.53-18.97,6.74-1,.35-1.5.86-1.5,1.92,0,6.11,0,12.23,0,18.34,0,1.05.5,1.54,1.51,1.89,6.29,2.18,12.55,4.46,18.83,6.67,3.89,1.37,6.61,3.93,7.82,7.86,1.9,6.15,4.27,12.09,7.3,17.77,1.98,3.7,1.94,7.44.13,11.21-2.91,6.06-5.77,12.14-8.68,18.19-.38.79-.42,1.32.26,1.98,4.45,4.41,8.87,8.85,13.28,13.31.63.63,1.15.65,1.97.26,6.05-2.92,12.15-5.75,18.21-8.65,3.94-1.89,7.67-1.62,11.63.21,5.53,2.56,11.2,4.85,16.92,6.96,4.04,1.49,6.86,3.94,8.29,8,2.24,6.33,4.5,12.65,6.74,18.98.27.76.53,1.37,1.52,1.37,6.31-.02,12.63-.01,18.94,0,.92,0,1.28-.47,1.56-1.29,2.23-6.38,4.52-12.74,6.77-19.12,1.4-3.95,4.07-6.6,8.06-7.82,6.06-1.85,11.89-4.2,17.48-7.19,3.69-1.98,7.45-1.94,11.22-.14,6.11,2.91,12.24,5.79,18.34,8.72.75.36,1.25.37,1.86-.25,4.48-4.52,8.98-9.03,13.5-13.51.62-.61.42-1.09.11-1.73-2.86-5.97-5.66-11.97-8.54-17.93-1.88-3.9-2.06-7.8,0-11.65,2.94-5.5,5.3-11.22,7.1-17.19,1.25-4.17,3.97-6.93,8.09-8.37,6.28-2.2,12.54-4.49,18.83-6.68.97-.34,1.38-.83,1.38-1.83,0-6.06,0-12.13.03-18.19,0-1.2-.5-1.75-1.63-2.14Zm-113.66,63.73c-30.66-.05-55.39-24.99-55.34-55.81.05-30.25,25.13-55.11,55.5-55.01,30.55.1,55.39,25.06,55.27,55.55-.12,30.51-25.01,55.32-55.43,55.27Z"/><path class="uuid-81e34bba-9a30-4d08-8fb9-6744138e1e5c" d="m935.46,497.36c-19.04-1.07-33.03,14.18-33.31,30.61-.29,17.66,13.47,32.01,31.17,32.2,18.17.19,31.79-14.74,31.71-31.35.15-15.82-12.16-30.47-29.57-31.45Z"/><path class="uuid-81e34bba-9a30-4d08-8fb9-6744138e1e5c" d="m931.25,320.04c-118.48,0-214.53,96.05-214.53,214.53s96.05,214.53,214.53,214.53,214.53-96.05,214.53-214.53-96.05-214.53-214.53-214.53Zm140.42,232.04c-.83,5.2-3.63,8.63-8.59,10.38-6.71,2.37-13.41,4.78-20.13,7.14-.9.31-1.36.8-1.7,1.69-1.08,2.83-2.33,5.59-3.41,8.42-.23.61-.26,1.48,0,2.06,3.04,6.55,6.16,13.07,9.24,19.6,2.15,4.57,1.84,8.94-1.19,13.02-8.41,11.34-18.26,21.24-29.66,29.57-3.85,2.82-8.03,3.21-12.33,1.22-6.69-3.1-13.33-6.33-20.01-9.45-.54-.25-1.37-.27-1.93-.06-2.92,1.12-5.78,2.4-8.7,3.52-.83.32-1.26.76-1.56,1.6-2.4,6.86-4.82,13.72-7.3,20.56-1.55,4.26-4.51,7.11-9.02,7.91-3.98.7-8,1.2-12.03,1.52-10.13.82-20.2.24-30.25-1.27-5.13-.77-8.51-3.51-10.26-8.29-2.47-6.79-4.83-13.62-7.3-20.4-.23-.64-.9-1.31-1.53-1.59-2.77-1.23-5.62-2.26-8.39-3.5-.89-.4-1.55-.39-2.39.02-6.42,3.09-12.85,6.15-19.29,9.2-4.67,2.21-9.11,1.84-13.29-1.28-11.1-8.29-20.81-17.97-29.1-29.08-3.17-4.25-3.53-8.68-1.28-13.4,3.06-6.43,6.13-12.86,9.15-19.31.26-.56.33-1.38.12-1.94-1.15-3.02-2.39-6-3.69-8.96-.24-.55-.84-1.11-1.4-1.31-6.84-2.48-13.71-4.85-20.55-7.33-4.3-1.56-7.11-4.55-8.04-9.11-.31-1.53-.5-3.09-.67-4.65-.43-4.01-.81-8.03-1.21-12.05v-10.03c.08-.5.19-.99.24-1.49.42-4.27.87-8.54,1.25-12.82.53-6.06,3.69-9.92,9.46-11.85,6.37-2.13,12.67-4.47,19.03-6.65,1.1-.38,1.74-.96,2.15-2.05,1.03-2.74,2.24-5.41,3.26-8.16.25-.66.3-1.6.02-2.22-3.05-6.6-6.22-13.16-9.3-19.75-2.07-4.41-1.73-8.67,1.16-12.61,8.33-11.34,18.18-21.17,29.49-29.53,4.08-3.02,8.43-3.42,13.01-1.26,6.44,3.05,12.88,6.09,19.3,9.18.94.45,1.69.48,2.68.03,2.57-1.17,5.2-2.25,7.86-3.2,1.18-.42,1.76-1.08,2.16-2.23,2.31-6.74,4.67-13.46,7.07-20.16,1.41-3.92,4.09-6.66,8.16-7.67,2.68-.66,5.48-.92,8.24-1.23,3.21-.37,6.43-.61,9.65-.91h9.11c.65.08,1.3.18,1.95.25,4.67.48,9.35.93,14.02,1.45,5.33.6,8.74,3.58,10.51,8.57,2.38,6.71,4.75,13.43,7.2,20.12.23.64.91,1.3,1.54,1.58,2.81,1.26,5.67,2.42,8.55,3.52.62.23,1.51.25,2.1-.03,6.42-2.98,12.81-6,19.18-9.08,4.9-2.36,9.42-1.94,13.8,1.34,10.98,8.21,20.56,17.79,28.76,28.78,3.12,4.18,3.65,8.55,1.44,13.25-3.08,6.54-6.22,13.05-9.26,19.6-.27.58-.27,1.47-.04,2.08,1.09,2.88,2.27,5.73,3.52,8.54.28.63.93,1.31,1.57,1.54,6.78,2.47,13.61,4.83,20.4,7.29,4.49,1.62,7.39,4.76,8.17,9.52,2.29,13.93,2.48,27.87.26,41.84Z"/></g></g><path class="uuid-1e15376a-9d2e-4758-965d-d85d15d772cf" d="m1568.3,462.8c1.93,0,1.93-3,0-3s-1.93,3,0,3h0Z"/></svg>