<?xml version="1.0" encoding="UTF-8"?><svg id="uuid-3dfba2c3-f5a2-4b29-b5a3-f2b9114d2b88" xmlns="http://www.w3.org/2000/svg" viewBox="0 0 1920 1080"><defs><style>.uuid-fedc6ce3-1e68-46ae-a704-252b581b6b75{fill:#fff;}.uuid-fee195c3-5ed9-4915-b61d-dd5046aa6bf6{fill:#73bd2d;}</style></defs><circle class="uuid-fee195c3-5ed9-4915-b61d-dd5046aa6bf6" cx="945.63" cy="543.27" r="459.51"/><g><g><path class="uuid-fedc6ce3-1e68-46ae-a704-252b581b6b75" d="m962.63,330.2c-121.69,0-220.35,98.65-220.35,220.35s98.65,220.35,220.35,220.35,220.35-98.65,220.35-220.35-98.65-220.35-220.35-220.35Zm-.74,380.49c-89.13,0-161.65-72.52-161.65-161.65s72.51-161.65,161.65-161.65,161.65,72.52,161.65,161.65-72.52,161.65-161.65,161.65Z"/><path class="uuid-fedc6ce3-1e68-46ae-a704-252b581b6b75" d="m1072.61,481.29c0,.4.06.78.06,1.18,0,28.33-22.97,51.3-51.3,51.3s-51.3-22.97-51.3-51.3c0-26.36,19.89-48.05,45.47-50.94-16.38-7.4-34.54-11.56-53.65-11.56-72.1,0-130.75,58.66-130.75,130.75s58.65,130.75,130.75,130.75,130.75-58.66,130.75-130.75c0-25.5-7.36-49.29-20.03-69.43Z"/></g><g><path class="uuid-fedc6ce3-1e68-46ae-a704-252b581b6b75" d="m660.28,498.42l-24.09,6.5c-.25.09-.4.25-.43.48l-.55,3.75c-.04.3.08.47.38.51l22.21,3.25c.42.06.73.23.93.5.2.27.27.62.21,1.03l-2.06,14.09c-.06.42-.23.73-.5.93-.27.2-.62.27-1.03.21l-59.76-8.74c-.42-.06-.73-.23-.93-.5-.2-.27-.27-.62-.21-1.03l3.95-27.03c.59-4.04,1.94-7.47,4.06-10.29,2.11-2.82,4.8-4.86,8.05-6.11,3.25-1.26,6.84-1.6,10.76-1.02,3.93.57,7.22,2.04,9.88,4.41,2.66,2.36,4.43,5.34,5.3,8.93.08.32.27.44.59.36l25.21-7.88c.37-.07.59-.1.65-.09.3.04.52.2.66.46.14.27.19.58.14.93l-2.19,14.99c-.11.77-.51,1.23-1.2,1.37Zm-48.78,7.72l10.44,1.53c.3.04.47-.08.51-.38l1.23-8.38c.28-1.9-.02-3.52-.88-4.87-.87-1.34-2.13-2.13-3.8-2.38-1.72-.25-3.19.14-4.41,1.18-1.21,1.04-1.96,2.51-2.24,4.41l-1.23,8.39c-.04.3.08.47.38.51Z"/><path class="uuid-fedc6ce3-1e68-46ae-a704-252b581b6b75" d="m668.22,460.12c-3.17,2.92-6.82,4.77-10.96,5.53-4.13.77-8.46.35-12.99-1.26l-15.97-5.67c-4.42-1.57-7.97-3.94-10.67-7.13-2.7-3.19-4.34-6.91-4.93-11.17-.59-4.26-.06-8.74,1.61-13.44,1.69-4.76,4.11-8.6,7.25-11.54,3.15-2.93,6.77-4.79,10.87-5.56,4.1-.78,8.36-.38,12.78,1.19l15.97,5.67c4.53,1.61,8.16,4.01,10.88,7.21,2.72,3.2,4.4,6.93,5.02,11.2.62,4.27.09,8.78-1.6,13.54-1.67,4.7-4.09,8.51-7.26,11.44Zm-6.72-22.85c-1.04-2-2.87-3.46-5.48-4.38l-16.65-5.91c-2.6-.92-4.94-.94-7.01-.05-2.07.89-3.53,2.53-4.37,4.91-.82,2.32-.71,4.48.33,6.48,1.05,2,2.87,3.46,5.48,4.38l16.65,5.91c2.61.92,4.94.94,7.01.05,2.07-.89,3.52-2.5,4.34-4.82.84-2.38.74-4.57-.3-6.56Z"/><path class="uuid-fedc6ce3-1e68-46ae-a704-252b581b6b75" d="m680.61,363.51c2.67-1.56,5.34-2.28,8-2.17,2.66.11,5.41,1.02,8.25,2.7,5.32,3.16,8.13,7.35,8.42,12.56.29,5.21-1.33,10.78-4.86,16.72l-12.39,20.84c-.22.36-.49.59-.82.67-.33.09-.67.02-1.04-.2l-51.91-30.87c-.36-.21-.58-.49-.67-.82-.08-.33-.02-.67.2-1.04l11.98-20.15c3.93-6.61,8.06-10.88,12.39-12.82,4.33-1.93,9.26-1.26,14.79,2.03,4.91,2.92,7.3,7,7.19,12.25.03.3.19.39.46.28Zm-25.99,12.66l7.75,4.61c.26.15.46.1.62-.16l3.78-6.35c2.24-3.77,1.94-6.5-.9-8.19-2.84-1.69-5.38-.65-7.63,3.12l-3.78,6.35c-.15.26-.1.46.16.62Zm32.03,1.53c-2.89-1.72-5.42-.77-7.57,2.84l-4.24,7.13c-.15.26-.1.46.16.62l8.14,4.84c.26.15.46.1.62-.16l4.19-7.05c2.18-3.67,1.75-6.41-1.3-8.22Z"/><path class="uuid-fedc6ce3-1e68-46ae-a704-252b581b6b75" d="m724.59,355.23c-4.05,1.5-8.12,1.82-12.24.96-4.11-.86-7.96-2.89-11.54-6.1l-12.62-11.31c-3.49-3.13-5.88-6.68-7.16-10.65-1.28-3.97-1.39-8.04-.32-12.21,1.07-4.17,3.27-8.11,6.6-11.82,3.37-3.76,7.06-6.4,11.09-7.92,4.02-1.52,8.08-1.86,12.17-1.02,4.09.84,7.88,2.82,11.37,5.95l12.62,11.31c3.58,3.21,6.02,6.81,7.33,10.8,1.31,3.99,1.43,8.08.39,12.27-1.05,4.19-3.26,8.16-6.62,11.92-3.33,3.72-7.02,6.32-11.06,7.82Zm2.47-23.69c-.21-2.24-1.34-4.29-3.4-6.13l-13.16-11.79c-2.06-1.84-4.21-2.75-6.47-2.71-2.25.04-4.22,1-5.91,2.88-1.65,1.84-2.36,3.88-2.15,6.12.21,2.25,1.34,4.29,3.4,6.13l13.16,11.79c2.06,1.84,4.22,2.75,6.47,2.71,2.25-.04,4.2-.98,5.85-2.81,1.68-1.88,2.42-3.94,2.21-6.19Z"/><path class="uuid-fedc6ce3-1e68-46ae-a704-252b581b6b75" d="m759.06,242.43c.34.05.63.24.89.57l7.22,9.46c.26.33.36.67.32,1.01-.04.34-.24.63-.57.89l-12.04,9.19c-.24.18-.27.39-.08.63l28.32,37.12c.26.33.36.67.32,1.01-.05.34-.24.63-.57.89l-11.32,8.64c-.33.26-.67.36-1.01.32-.34-.04-.63-.24-.89-.57l-28.33-37.13c-.18-.24-.39-.27-.63-.08l-11.68,8.91c-.33.26-.67.36-1.01.32-.34-.04-.63-.24-.89-.57l-7.22-9.46c-.25-.33-.36-.67-.32-1.01.05-.33.24-.63.57-.89l37.91-28.93c.33-.25.67-.36,1.01-.31Z"/><path class="uuid-fedc6ce3-1e68-46ae-a704-252b581b6b75" d="m806.38,287.22c-.33-.09-.59-.32-.8-.69l-29.48-52.72c-.2-.37-.26-.71-.17-1.04.09-.33.32-.59.69-.8l12.43-6.95c.37-.2.71-.26,1.04-.17.33.09.59.32.8.69l29.48,52.72c.21.37.26.72.17,1.04-.09.33-.32.59-.69.8l-12.43,6.95c-.37.21-.71.26-1.04.17Z"/><path class="uuid-fedc6ce3-1e68-46ae-a704-252b581b6b75" d="m840.61,267.54c-4.2-.45-7.89-1.95-11.08-4.49-3.19-2.54-5.62-5.97-7.27-10.3l-6.51-17.01c-1.63-4.27-2.1-8.4-1.41-12.39.69-3.99,2.45-7.56,5.27-10.7,2.82-3.14,6.53-5.59,11.14-7.35,4.6-1.76,8.98-2.47,13.13-2.13,4.15.34,7.78,1.67,10.89,3.99,3.11,2.32,5.43,5.5,6.98,9.54.19.51-.11.98-.91,1.41l-12.98,5.93-.25.1c-.67.26-1.13.08-1.36-.54-.88-2.3-2.26-3.88-4.13-4.74-1.87-.86-3.93-.86-6.18,0-2.25.86-3.78,2.23-4.6,4.12-.82,1.89-.79,3.99.09,6.29l6.93,18.1c.86,2.25,2.23,3.8,4.1,4.66,1.87.86,3.93.86,6.18,0,2.24-.86,3.78-2.23,4.6-4.12.82-1.89.8-3.96-.06-6.2-.13-.34-.11-.63.05-.89.16-.25.45-.43.86-.52l13.56-4.42c.86-.27,1.39-.15,1.58.36,1.55,4.04,1.94,7.98,1.19,11.8-.76,3.83-2.56,7.27-5.41,10.32-2.85,3.05-6.58,5.46-11.18,7.22-4.6,1.76-9,2.41-13.2,1.96Z"/><path class="uuid-fedc6ce3-1e68-46ae-a704-252b581b6b75" d="m896.55,249.95c-4.01-.98-7.31-2.8-9.88-5.46-2.57-2.66-4.2-5.98-4.9-9.94l-.22-1.24c-.07-.41-.01-.76.19-1.04.19-.28.5-.45.91-.53l13.76-2.41c.41-.07.76,0,1.04.19.28.2.45.5.53.91l.09.53c.29,1.66,1.42,2.97,3.39,3.94,1.97.97,4.4,1.2,7.3.69,2.19-.38,3.68-1.11,4.47-2.2.79-1.08,1.08-2.19.89-3.31-.23-1.3-.99-2.17-2.29-2.62-1.3-.44-3.6-.87-6.9-1.26l-2.7-.26c-6.17-.75-11.5-2.26-15.98-4.53-4.48-2.27-7.22-6.21-8.2-11.84-.65-3.73-.22-7.21,1.29-10.43,1.51-3.22,3.89-5.91,7.15-8.07,3.25-2.15,7.07-3.62,11.45-4.38,4.62-.81,8.96-.68,13.02.38,4.06,1.06,7.44,2.97,10.15,5.73,2.71,2.76,4.42,6.15,5.12,10.18l.14.8c.07.41.01.76-.19,1.04-.2.28-.5.45-.91.53l-13.76,2.41c-.41.07-.76.01-1.04-.18-.28-.19-.45-.5-.53-.92l-.02-.09c-.31-1.78-1.39-3.25-3.24-4.42-1.85-1.17-4.14-1.52-6.86-1.04-1.89.33-3.32.98-4.28,1.94-.96.96-1.32,2.12-1.08,3.48.19,1.06.74,1.9,1.67,2.5.93.6,2.28,1.1,4.06,1.49,1.78.39,4.47.82,8.1,1.29.5.09,2.7.37,6.59.81,3.89.45,7.33,1.89,10.32,4.33,2.99,2.44,4.84,5.7,5.55,9.78.69,3.97.28,7.56-1.23,10.78-1.51,3.22-3.94,5.92-7.28,8.09-3.34,2.17-7.41,3.67-12.21,4.51-4.97.87-9.47.82-13.48-.16Z"/></g><g><path class="uuid-fedc6ce3-1e68-46ae-a704-252b581b6b75" d="m1069.44,866.29l-4.29-7.05c-.07-.11-.17-.15-.29-.12l-18.13,4.42c-.12.03-.19.11-.2.24l-.56,8.23c-.04.35-.25.57-.61.66l-3.28.8c-.45.11-.66-.07-.65-.55l3.34-44.56c.04-.35.25-.57.61-.66l4.12-1c.36-.09.65.01.85.31l23.52,38.01.12.23c.07.28-.08.47-.44.56l-3.27.8c-.36.09-.65-.01-.85-.31Zm-22.58-6.61c.07.05.15.06.23.04l15.64-3.81c.08-.02.14-.07.19-.14.05-.07.04-.15-.02-.22l-13.91-22.82c-.06-.07-.13-.1-.21-.08-.08.02-.13.07-.15.17l-1.86,26.66c-.02.09,0,.16.08.2Z"/><path class="uuid-fedc6ce3-1e68-46ae-a704-252b581b6b75" d="m1093.86,811.4l2.95-1.19c.39-.16.66-.04.81.35l15.89,39.35c.16.39.04.66-.35.81l-2.89,1.17c-.27.11-.56.07-.86-.12l-32.7-24.15c-.09-.1-.16-.12-.23-.07-.07.05-.08.13-.03.25l12.94,31.86c.16.39.04.66-.34.81l-2.95,1.19c-.39.16-.66.04-.81-.35l-15.89-39.35c-.16-.38-.04-.66.35-.81l2.89-1.17c.27-.11.56-.07.86.12l32.7,24.15c.09.1.16.13.23.07.07-.05.08-.13.03-.25l-12.94-31.86c-.16-.38-.04-.66.34-.81Z"/><path class="uuid-fedc6ce3-1e68-46ae-a704-252b581b6b75" d="m1135.61,838.04l-9.24-16c-.08-.14-.15-.22-.21-.24l-22.98-13.83c-.16-.1-.25-.19-.3-.26-.12-.22-.02-.42.3-.6l2.92-1.69c.32-.19.61-.19.87,0l18.6,11.24c.06.02.12,0,.19-.04.07-.04.12-.09.13-.15l-.39-21.76c0-.33.14-.59.43-.75l2.92-1.69c.22-.12.4-.14.54-.06.14.09.22.25.21.49l.49,26.81c-.01.06.02.16.1.3l9.24,16c.21.36.13.64-.23.85l-2.76,1.59c-.36.21-.64.13-.85-.23Z"/><path class="uuid-fedc6ce3-1e68-46ae-a704-252b581b6b75" d="m1162.34,812.33c.07.06.15.04.25-.03l13.09-9.91c.17-.12.34-.17.53-.13.19.04.33.16.42.35l3.11,5.24c.09.19.12.4.07.61-.04.22-.15.39-.32.51l-21.7,16.42c-.17.13-.34.17-.53.13-.19-.04-.33-.16-.42-.35l-2.92-4.99c-.18-.38-.24-.73-.17-1.05.73-4,1.51-9.07,2.33-15.23l.8-5.77c.81-5.83.7-9.66-.32-11.5l-.36-.58c-.78-1.03-1.76-1.59-2.95-1.68-1.19-.09-2.38.32-3.58,1.22-1.29.98-2.1,2.17-2.41,3.59-.31,1.41-.09,2.79.67,4.15l.79,1.36c.09.19.12.39.1.59-.03.2-.13.37-.29.49l-5.72,4.33c-.17.13-.34.17-.53.13-.19-.04-.33-.16-.42-.35l-1.47-2.57c-1.56-3.1-1.82-6.33-.77-9.71s3.13-6.24,6.25-8.6c2.09-1.58,4.18-2.58,6.27-2.99,2.09-.41,4.03-.26,5.82.45,1.79.71,3.31,1.89,4.57,3.55,1.2,1.59,2,3.54,2.4,5.86.39,2.31.43,5.08.1,8.3-.17,2.06-.48,4.51-.93,7.36-.45,2.85-.94,5.69-1.45,8.53l-.37,2c-.02.12,0,.2.08.25Z"/><path class="uuid-fedc6ce3-1e68-46ae-a704-252b581b6b75" d="m1192.34,795.69c-2.64.81-5.24.87-7.79.17-2.55-.7-4.88-2.12-6.98-4.26l-10.1-10.29c-2.1-2.14-3.47-4.49-4.13-7.06-.65-2.56-.54-5.15.34-7.76.88-2.61,2.48-5.05,4.79-7.32,2.29-2.24,4.71-3.8,7.28-4.65,2.57-.86,5.1-.98,7.59-.37,2.49.61,4.75,1.94,6.76,3.99.26.27.24.61-.05,1.02l-4.91,5.43-.09.09c-.3.29-.61.27-.93-.05-1.54-1.57-3.26-2.36-5.16-2.37-1.9,0-3.63.77-5.21,2.31-1.6,1.57-2.42,3.31-2.46,5.21-.03,1.9.72,3.63,2.27,5.21l10.53,10.74c1.52,1.54,3.22,2.32,5.12,2.32,1.9,0,3.65-.78,5.25-2.36,1.57-1.54,2.38-3.26,2.41-5.16.03-1.9-.71-3.62-2.22-5.16-.32-.33-.3-.66.05-1.01l5.43-4.89c.15-.15.32-.22.51-.24.19-.01.35.04.46.16,2.01,2.05,3.31,4.33,3.88,6.85.58,2.52.42,5.06-.47,7.63-.89,2.57-2.48,4.97-4.77,7.21-2.32,2.27-4.79,3.82-7.44,4.63Z"/><path class="uuid-fedc6ce3-1e68-46ae-a704-252b581b6b75" d="m1217.49,771.5c-.2.03-.39-.03-.55-.15l-33.24-25.98c-.16-.13-.26-.29-.28-.5-.02-.2.03-.39.15-.55l4.5-5.75c.13-.16.29-.26.5-.28.2-.02.39.03.55.15l27.63,21.6c.16.13.31.11.44-.05l12.57-16.08c.13-.16.29-.26.5-.28s.39.03.55.15l4.77,3.73c.16.13.26.29.28.5.02.21-.03.39-.15.55l-17.72,22.67c-.13.16-.29.26-.5.28Z"/><path class="uuid-fedc6ce3-1e68-46ae-a704-252b581b6b75" d="m1243.33,734.24c-2.4,1.46-4.98,2.17-7.74,2.14-2.76-.03-5.48-.84-8.17-2.42l-11.51-6.78c-2.65-1.56-4.65-3.54-6-5.92-1.35-2.39-1.96-4.98-1.83-7.78.13-2.8,1.01-5.6,2.66-8.39,1.67-2.83,3.69-4.98,6.08-6.45,2.39-1.47,4.95-2.19,7.69-2.17,2.74.02,5.44.81,8.09,2.37l11.51,6.78c2.69,1.58,4.73,3.58,6.11,5.99,1.38,2.41,2.01,5.01,1.88,7.81-.13,2.8-1.02,5.61-2.69,8.45-1.65,2.8-3.67,4.92-6.07,6.38Zm.5-16.11c-.54-1.96-1.85-3.55-3.93-4.77l-11.83-6.96c-2.08-1.22-4.11-1.61-6.09-1.16-1.98.45-3.56,1.68-4.74,3.69-1.16,1.97-1.46,3.93-.89,5.88.57,1.95,1.89,3.54,3.97,4.76l11.83,6.96c2.08,1.23,4.1,1.61,6.06,1.14,1.96-.46,3.52-1.68,4.68-3.65s1.47-3.94.94-5.89Z"/><path class="uuid-fedc6ce3-1e68-46ae-a704-252b581b6b75" d="m1263.41,696.44c-2.08,1.77-4.43,2.85-7.04,3.24-2.61.38-5.28.01-8.01-1.11l-26.31-10.86c-.19-.08-.33-.21-.41-.4-.08-.19-.08-.38,0-.57l2.79-6.75c.08-.19.21-.33.4-.41.19-.08.38-.08.57,0l26.36,10.88c2.04.84,3.94.9,5.71.16,1.77-.73,3.07-2.12,3.91-4.16.84-2.04.9-3.94.16-5.71-.73-1.76-2.12-3.07-4.16-3.91l-26.36-10.88c-.19-.08-.33-.21-.41-.4s-.08-.38,0-.57l2.79-6.75c.08-.19.21-.33.4-.41s.38-.08.57,0l26.31,10.86c2.73,1.13,4.89,2.75,6.47,4.86,1.58,2.12,2.48,4.54,2.71,7.26.23,2.73-.27,5.57-1.5,8.53-1.22,2.96-2.87,5.33-4.96,7.1Z"/><path class="uuid-fedc6ce3-1e68-46ae-a704-252b581b6b75" d="m1277.37,663.39c-.18.11-.37.13-.57.08l-40.87-10.46c-.2-.05-.35-.17-.46-.34-.1-.18-.13-.37-.08-.57l3.87-15.12c.77-3.02,1.99-5.54,3.64-7.54,1.65-2,3.6-3.38,5.86-4.14,2.25-.75,4.65-.81,7.19-.16l16.69,4.27c2.54.65,4.62,1.85,6.23,3.59,1.62,1.75,2.67,3.89,3.15,6.44.49,2.55.34,5.34-.43,8.36l-3.87,15.12c-.05.2-.17.36-.34.46Zm-4.9-10.43l1.87-7.32c.47-1.85.23-3.52-.72-4.98-.95-1.47-2.48-2.49-4.56-3.07l-13.91-3.56c-2.1-.54-3.92-.39-5.46.44s-2.56,2.21-3.06,4.15l-1.86,7.26c-.05.2.02.33.22.38l27.09,6.93c.2.05.33-.02.38-.22Z"/></g></g></svg>