<?xml version="1.0" encoding="utf-8"?>
<!-- Generator: Adobe Illustrator 27.2.0, SVG Export Plug-In . SVG Version: 6.00 Build 0)  -->
<svg version="1.1" id="Layer_1" xmlns="http://www.w3.org/2000/svg" xmlns:xlink="http://www.w3.org/1999/xlink" x="0px" y="0px"
	 viewBox="0 0 32 32" style="enable-background:new 0 0 32 32;" xml:space="preserve">
<style type="text/css">
	.st0{fill:#32BA7C;}
	.st1{fill:#0AA06E;}
	.st2{fill:#FFFFFF;}
</style>
<path class="st0" d="M16,32c8.7,0,16-7.3,16-16S24.7,0,16,0S0,7.3,0,16S7.3,32,16,32z"/>
<path class="st1" d="M11.9,23.3l8.1,8.1C27.1,29.7,32,23.6,32,16v-0.6l-6.4-5.8L11.9,23.3z"/>
<path class="st2" d="M22.1,8.4c0.6-0.6,2-0.6,2.6,0l1.5,1.5c0.6,0.6,0.6,2,0,2.6L14.8,23.6c-0.6,0.6-2,0.6-2.6,0l-1.5-1.5
	c-0.6-0.6-0.6-2,0-2.6L22.1,8.4z"/>
<path class="st2" d="M16.3,19.5c0.6,0.6,0.6,2,0,2.6l-1.5,1.5c-0.6,0.6-2,0.6-2.6,0l-6.4-6.4c-0.6-0.9-0.6-2,0-2.6l1.5-1.5
	c0.6-0.6,2-0.6,2.6,0L16.3,19.5z"/>
</svg>
