<svg width="85" height="88" viewBox="0 0 85 88" fill="none" xmlns="http://www.w3.org/2000/svg">
<path d="M7.13313 86.6175C8.45168 82.8088 9.85579 79.3358 10.8365 75.7466C11.714 72.5368 11.1809 69.6716 8.987 66.7098C-1.54385 52.4909 -1.93218 33.5156 7.65089 18.9019C16.9882 4.6655 34.4739 -2.62052 50.9502 0.861239C68.2516 4.51852 81.1255 18.0024 84.0105 35.4946C88.9074 65.1718 61.0335 90.2221 31.8016 82.3042C28.8376 81.5012 26.6306 81.5429 24.0373 83.5174C19.373 87.0694 14.0857 87.7912 7.13313 86.6175ZM27.5323 42.1027C27.6332 38.7482 24.8754 35.8302 21.5077 35.7271C18.1883 35.624 15.2199 38.4388 15.1344 41.7758C15.0466 45.1325 17.8088 48.0263 21.183 48.1097C24.5792 48.1952 27.4313 45.4967 27.5345 42.1027H27.5323ZM63.9142 35.7183C60.5706 35.7096 57.7229 38.5726 57.7339 41.9315C57.7448 45.3607 60.485 48.1096 63.8988 48.1162C67.2862 48.1228 70.1274 45.319 70.1383 41.9535C70.1493 38.667 67.2138 35.7249 63.9142 35.7183ZM42.0429 48.0921C45.4983 48.3817 48.425 45.9355 48.7146 42.5151C49.0064 39.0487 46.6063 36.1023 43.1969 35.7447C39.8775 35.3958 36.8345 37.9562 36.5098 41.3677C36.1851 44.7837 38.673 47.8113 42.0429 48.0943V48.0921Z" fill="white"/>
</svg>
