<?xml version="1.0" encoding="utf-8"?>
<!-- Generator: Adobe Illustrator 27.2.0, SVG Export Plug-In . SVG Version: 6.00 Build 0)  -->
<svg version="1.1" id="Layer_1" xmlns="http://www.w3.org/2000/svg" xmlns:xlink="http://www.w3.org/1999/xlink" x="0px" y="0px"
	 viewBox="0 0 47 48.5" style="enable-background:new 0 0 47 48.5;" xml:space="preserve">
<style type="text/css">
	.st0{fill:#58456A;}
</style>
<g>
	<path class="st0" d="M21.6,48.5c-1-0.4-1.6-1-1.6-2.2c0-0.1-0.1-0.2-0.2-0.3c-0.8-0.3-1.5-0.6-2.4-0.9c-0.5,0.6-1.2,1-2.1,0.7
		c-0.4-0.1-0.8-0.3-1-0.6c-0.7-0.6-1.3-1.3-2-1.9c-0.9-0.9-0.9-2-0.1-2.9c0.2-0.2,0.2-0.3,0.1-0.5c-0.3-0.6-0.5-1.3-0.8-2
		c-0.1-0.1-0.2-0.3-0.4-0.3c-1.3-0.1-2.1-0.9-2.1-2.2c0-0.9,0-1.8,0-2.7c0,0,0-0.1,0-0.2c-0.4,0-0.9,0-1.3,0c-3.7,0-6.9-2.5-7.6-6.2
		c-0.6-3.2,0.5-5.8,3.1-7.7c0.2-0.2,0.3-0.3,0.3-0.6C2.1,11.8,6.9,6.3,13.1,6.6c0.4,0,0.5-0.1,0.7-0.4c2-4,5.2-6.2,9.7-6.2
		c4.5,0,7.7,2.2,9.7,6.2c0.2,0.3,0.3,0.4,0.7,0.4c5.5-0.3,10.1,4.2,9.9,9.6c0,0.6-0.1,1.2-0.3,1.8c-0.1,0.3,0,0.4,0.2,0.6
		c2.6,1.9,3.7,4.5,3.1,7.7c-0.6,3.2-2.7,5.2-5.9,6c-0.5,0.1-1.1,0.1-1.7,0.2c-0.4,0-0.9,0-1.4,0c0,0.5,0,0.9,0,1.4
		c0,0.5,0,1.1,0,1.6c0,1.2-0.8,2.1-2,2.1c-0.3,0-0.4,0.1-0.5,0.3c-0.2,0.6-0.5,1.3-0.8,1.9c-0.1,0.2-0.1,0.4,0.1,0.5
		c0.9,0.9,0.8,2.1-0.1,3c-0.6,0.6-1.2,1.2-1.8,1.8c-1,1-2.1,1-3.1,0.1c0,0-0.1-0.1-0.1-0.1c-0.8,0.3-1.6,0.6-2.3,0.9
		c-0.1,0-0.2,0.2-0.2,0.3c0,1.1-0.6,1.8-1.6,2.2C24.1,48.5,22.9,48.5,21.6,48.5z M29.6,32.5c-0.7,0-1.3,0-1.9,0
		c-0.5,0-0.8-0.4-0.9-0.9c0-0.5,0.2-0.9,0.7-1c0.2,0,0.4-0.1,0.7-0.1c3.7,0,7.3,0,11,0c0.3,0,0.7,0,1-0.1c2.5-0.4,4.4-2.3,4.8-4.6
		c0.4-2.6-0.7-4.9-3-6.2c-0.7-0.4-0.8-0.7-0.6-1.5c0.2-0.9,0.4-1.7,0.4-2.6c-0.1-4.6-4.2-7.8-8.7-7.1c-0.7,0.1-1.1-0.1-1.3-0.8
		c-1.3-3.6-4.5-6-8.3-6c-3.8,0-7.1,2.3-8.3,6c-0.3,0.7-0.6,0.9-1.3,0.8c-5.6-0.9-10.1,4.2-8.3,9.5c0.3,1,0.2,1.2-0.7,1.7
		C2.7,21,1.6,23.4,2,25.9c0.4,2.3,2.3,4.2,4.7,4.6c0.4,0.1,0.8,0.1,1.2,0.1c3.4,0,6.9,0,10.3,0c1.6,0,2.1,0.2,2,0.9
		c0,0.6-0.1,1.1-2,1c-0.3,0-0.5,0-0.8,0c-0.8,2.3,0.3,5.2,2.3,6.7c2.3,1.7,5.3,1.6,7.6,0C29.4,37.6,30.4,34.7,29.6,32.5z M15.9,44.1
		c0.2-0.2,0.3-0.4,0.5-0.6c0.6-0.6,0.9-0.6,1.6-0.2c0.7,0.4,1.5,0.8,2.3,1c1.5,0.5,1.5,0.5,1.5,2c0,0.3,0.1,0.4,0.4,0.4
		c0.6,0,1.1,0,1.7,0c1.1,0,1.1,0,1.1-1.1c0-0.6,0.2-0.9,0.8-1.1c1.1-0.3,2.2-0.7,3.2-1.3c0.5-0.3,0.9-0.3,1.3,0.2
		c0.3,0.3,0.5,0.6,0.6,0.8c0.9-0.8,1.6-1.6,2.4-2.4c-0.3-0.2-0.6-0.4-0.8-0.7c-0.4-0.4-0.4-0.8-0.2-1.2c0.6-1,1.1-2.1,1.4-3.3
		c0.1-0.5,0.5-0.7,1-0.7c0.3,0,0.6,0,0.9,0c0.1,0,0.3-0.1,0.3-0.2c0-1,0-1.9,0-2.9c-1.5,0-2.9,0-4.4,0c0.4,2.4-0.1,4.6-1.6,6.6
		c-1.5,2-3.5,3-6,3.2c-2.1,0.2-4-0.4-5.7-1.8c-2.5-2.1-3.4-4.8-3-8c-1.5,0-2.9,0-4.3,0c0,1.1,0,2.1,0,3.1c0.1,0,0.1,0,0.1,0
		c0.3,0,0.6,0,0.9,0c0.6,0,0.9,0.2,1.1,0.8c0.3,1.1,0.7,2.2,1.3,3.2c0.3,0.5,0.3,0.9-0.2,1.3c-0.3,0.3-0.6,0.5-0.8,0.7
		C14.4,42.5,15.1,43.2,15.9,44.1z"/>
	<path class="st0" d="M19.4,23.7c0,0.6-0.3,1-0.7,1.1c-0.5,0.1-0.9-0.1-1.1-0.5c-0.2-0.5-0.4-0.9-0.5-1.4c-0.1-0.3-0.2-0.4-0.5-0.4
		c-1.2,0-2.5,0-3.7,0c-0.3,0-0.4,0.1-0.5,0.3c-0.1,0.4-0.3,0.9-0.5,1.3c-0.2,0.6-0.7,0.8-1.3,0.6c-0.5-0.2-0.7-0.7-0.5-1.3
		c1.2-3.1,2.4-6.2,3.5-9.3c0.2-0.5,0.6-0.8,1.1-0.8c0.6,0,0.9,0.4,1.1,0.9c1,2.8,2.1,5.6,3.1,8.4C19.2,23.1,19.3,23.5,19.4,23.7z
		 M14.7,16.7c-0.5,1.3-1,2.6-1.5,3.9c1,0,2,0,3,0c-0.5-1.2-0.9-2.4-1.4-3.6C14.9,16.9,14.8,16.8,14.7,16.7z"/>
	<path class="st0" d="M24.3,20.7c0,1.1,0,2.1,0,3.1c0,0.7-0.4,1.1-1,1c-0.5,0-0.9-0.4-0.9-1.1c0-1.8,0-3.7,0-5.5c0-1.2,0-2.4,0-3.6
		c0-0.8,0.3-1.1,1.1-1.1c1.1,0,2.2-0.1,3.3,0.1c1.8,0.3,3,2,2.9,3.7c-0.1,1.8-1.5,3.3-3.3,3.4C25.6,20.7,25,20.7,24.3,20.7z
		 M24.3,18.8c0.7,0,1.3,0.1,1.9,0c0.8-0.1,1.5-0.8,1.5-1.6c0-0.8-0.5-1.6-1.3-1.7c-0.7-0.1-1.5-0.1-2.2-0.1
		C24.3,16.5,24.3,17.6,24.3,18.8z"/>
	<path class="st0" d="M32.6,19c0-1.5,0-3.1,0-4.6c0-0.6,0.4-0.9,0.9-1c0.5,0,0.9,0.3,1,0.9c0,0.2,0,0.3,0,0.5c0,2.8,0,5.5,0,8.3
		c0,0.2,0,0.3,0,0.5c0,0.6-0.4,1-0.9,1.1c-0.6,0-1-0.4-1-1C32.6,22.1,32.6,20.5,32.6,19C32.6,19,32.6,19,32.6,19z"/>
	<path class="st0" d="M23.5,32.5c-0.5,0-1-0.4-1-0.9c0-0.5,0.4-0.9,0.9-0.9c0.5,0,1,0.5,1,1C24.4,32.1,24,32.5,23.5,32.5z"/>
</g>
</svg>
