<svg width="68" height="59" viewBox="0 0 68 59" fill="none" xmlns="http://www.w3.org/2000/svg">
<path d="M28.4756 59C27.0836 59 25.7546 58.5651 24.6312 57.7411C22.239 55.9879 21.5978 53.4944 22.6117 49.8988L22.8117 49.1883L21.8252 49.1315C21.6636 49.1207 21.5101 49.1126 21.3539 49.1072C20.984 49.0937 20.6113 49.0937 20.2524 49.0937C19.4769 49.0937 18.748 49.0937 18.0493 48.9641C15.3201 48.4535 13.3773 45.9978 13.5307 43.2478C13.6842 40.5031 15.827 38.2933 18.6275 37.9934C18.7124 37.9853 18.8001 37.9691 18.9097 37.9448L19.0604 37.9151L19.6989 37.7962L19.1207 35.6593C18.8302 34.5896 18.5425 33.5252 18.252 32.4635L10.5412 4.26561C10.2124 3.05806 9.8452 2.78251 8.57651 2.77981C8.57651 2.77981 5.06635 2.78521 4.42241 2.78521C3.49075 2.78521 2.56183 2.78521 1.63017 2.7744C1.01912 2.769 0.503963 2.52857 0.216245 2.11255C-0.02489 1.76136 -0.0659925 1.33452 0.101158 0.904991C0.331332 0.326877 0.720437 0.0324176 1.26299 0.0270147L2.096 0.0189103C3.21947 0.0108059 4.34568 0 5.46915 0C7.05571 0 8.36551 0.0189103 9.59037 0.0594322C11.1797 0.11076 12.632 1.35884 13.1197 3.09318C13.8431 5.66227 14.583 8.37454 15.3173 11.1516C15.5119 11.8918 15.9393 12.2214 16.7011 12.2241C26.7658 12.2511 36.9976 12.2971 46.8923 12.3376L48.3857 12.343C49.8654 12.3484 51.3451 12.3619 52.8248 12.3727C54.9238 12.3889 57.0967 12.4078 59.234 12.4078C60.5603 12.4078 61.7605 12.3997 62.9004 12.3862H63.0319C65.3885 12.3862 66.6215 13.2075 67.26 15.2174V16.3763C67.0983 17.0381 66.9394 17.7027 66.7777 18.3646C66.4105 19.8747 66.0434 21.3848 65.6871 22.8976C65.1199 25.2965 64.5582 27.6981 63.9965 30.0997C63.4484 32.4419 62.9004 34.7841 62.3469 37.1262C61.7906 39.49 60.1602 40.7381 57.6338 40.7381C49.4133 40.7381 41.1955 40.7327 32.975 40.7273L19.7263 40.7192C19.5098 40.7192 19.2604 40.7192 19.0083 40.7408C17.4601 40.8651 16.3476 42.0537 16.3641 43.5638C16.3805 45.0875 17.4958 46.2194 19.0768 46.3166C19.2659 46.3274 19.455 46.3301 19.6441 46.3301H58.8258H59.1792C59.2532 46.3301 59.3272 46.3301 59.4012 46.3355C60.1301 46.3679 60.6671 46.757 60.8316 47.3729C60.9987 47.9969 60.7411 48.5615 60.0999 48.9641C60.0588 48.9911 60.015 49.0154 59.9602 49.0451L59.3875 49.3774L59.604 49.8609C60.3904 51.625 60.4562 53.2945 59.7985 54.9721C59.3299 56.1689 58.5353 57.1522 57.4392 57.8924C56.376 58.611 55.1238 58.9892 53.8195 58.9892C52.5151 58.9892 51.2629 58.6083 50.2052 57.887C47.6623 56.15 47.0129 53.8294 47.961 49.8745L48.1363 49.1451H33.9313L34.2903 49.9717C35.0603 51.7493 35.0904 53.4242 34.3889 55.0964C33.8792 56.3066 33.0462 57.2846 31.9118 58.0005C30.8842 58.6488 29.6977 58.9919 28.4756 58.9919V59ZM28.4153 49.1126C26.4643 49.1451 24.8696 50.7389 24.8641 52.6624C24.8613 53.6241 25.2313 54.5183 25.9053 55.1855C26.5794 55.8528 27.4892 56.2202 28.4619 56.2202C29.4429 56.2202 30.3581 55.842 31.0432 55.1585C31.72 54.4831 32.0899 53.5917 32.0817 52.6489C32.0653 50.7308 30.4129 49.1099 28.4756 49.1099H28.4153V49.1126ZM53.8167 49.1126C51.8657 49.118 50.2545 50.693 50.2216 52.6245C50.2052 53.5809 50.5669 54.4804 51.2382 55.1585C51.9123 55.8393 52.8193 56.2175 53.7921 56.2229C55.8335 56.2229 57.42 54.6722 57.4283 52.6894C57.4337 51.7412 57.0556 50.8416 56.3678 50.1608C55.6828 49.4827 54.7813 49.1099 53.8249 49.1099H53.814L53.8167 49.1126ZM20.2277 28.4734C20.225 28.5032 20.2195 28.5302 20.214 28.5518C20.1948 28.6436 20.1674 28.7841 20.214 28.9516L20.6524 30.5725C21.2005 32.6013 21.7677 34.7003 22.376 36.7561C22.5432 37.3234 23.2857 37.907 23.8721 37.934C24.5955 37.9664 25.3655 37.9799 26.3657 37.9799C26.8123 37.9799 27.259 37.9799 27.7056 37.9745C28.155 37.9745 28.6099 37.9691 29.0648 37.9691H29.5991L29.6649 37.4477C29.6703 37.4018 29.6758 37.364 29.6813 37.3342C29.695 37.2505 29.7142 37.1451 29.6977 37.0182L29.5827 36.1429C29.2648 33.7359 28.936 31.2478 28.588 28.803C28.5167 28.3114 27.9139 27.9845 27.5138 27.9683C27.1549 27.9548 26.774 27.9467 26.278 27.9467C26.0588 27.9467 25.1902 27.9521 24.9737 27.9521H20.2962L20.2277 28.4707V28.4734ZM42.582 37.9772H45.3058C46.358 37.9772 47.5993 37.9772 48.8214 37.9583C49.3612 37.9502 49.6845 37.3207 49.7311 37.002C50.0188 35.0083 50.2901 32.9849 50.5285 31.1965C50.6052 30.6238 50.6737 30.0484 50.745 29.4622L50.9258 27.9845H42.582V37.9772ZM58.4503 27.9575C57.2419 27.9575 55.9404 27.9602 54.6086 27.9845C53.9976 27.9953 53.6934 28.7625 53.6523 29.0408C53.4441 30.4239 53.2577 31.8287 53.0796 33.1902L52.9974 33.8061C52.8933 34.595 52.7919 35.3865 52.6878 36.1942L52.4603 37.9664H53.1426C53.6194 37.9664 54.0907 37.9664 54.5566 37.9691C55.0169 37.9691 55.4718 37.9718 55.9267 37.9718C56.7734 37.9718 57.4584 37.9664 58.0859 37.9556C58.8395 37.9421 59.4067 37.4396 59.6012 36.6103C59.741 36.0186 60.1082 34.4329 60.1082 34.4329L61.6152 27.9575H58.4476H58.4503ZM32.6736 37.9448H39.6911V27.9926H31.3254L32.6736 37.9448ZM42.5957 25.1858H45.8867C47.328 25.1858 48.8789 25.1858 50.46 25.1641C51.0135 25.156 51.4026 24.4969 51.4547 24.1457C51.6684 22.7355 51.8575 21.2984 52.0411 19.9098L52.1206 19.3155C52.2247 18.5294 52.3233 17.7405 52.4275 16.9355L52.6549 15.1471H42.5957V25.1885V25.1858ZM56.45 15.1552C55.8143 15.1552 55.4444 15.5037 55.3567 16.1899C55.2033 17.3866 55.0416 18.5807 54.8772 19.7774C54.7785 20.4933 54.6826 21.2119 54.5867 21.9278C54.51 22.5032 54.4415 23.0786 54.3675 23.6783L54.1839 25.1885H57.2639C58.6038 25.1885 60.0424 25.1885 61.4947 25.1723C61.9276 25.1668 62.3524 24.7481 62.4428 24.3753C63.0045 22.0494 63.5608 19.6829 64.1006 17.392L64.5637 15.42L63.9937 15.2768C63.9663 15.2687 63.9444 15.2633 63.9225 15.2579C63.8457 15.2363 63.7444 15.2038 63.6128 15.2038L61.3166 15.1903C59.6999 15.1822 58.0832 15.1741 56.4692 15.1579H56.45V15.1552ZM30.9473 25.1641H39.6911V15.1012H29.5854L30.95 25.1641H30.9473ZM19.1563 25.1506H27.8892L27.9386 24.6103C27.9413 24.5779 27.9468 24.5482 27.9495 24.5239C27.9632 24.4348 27.9769 24.3213 27.9605 24.1862L27.8646 23.4487C27.5385 20.9742 27.2014 18.4159 26.8425 15.9035C26.774 15.4146 26.1766 15.085 25.7793 15.0634C25.2559 15.0364 24.7408 15.031 24.2612 15.031H23.4118H16.3887L19.1563 25.1479V25.1506Z" fill="#58456A"/>
</svg>
