<svg width="61" height="42" viewBox="0 0 61 42" fill="none" xmlns="http://www.w3.org/2000/svg">
<path d="M59.855 9.98791C59.4526 9.30743 58.7416 9.04532 58.0154 8.84622H56.0468C55.7483 6.62332 55.4497 4.40043 55.1486 2.17501C54.8981 1.74404 54.6956 1.27527 54.3895 0.887142C53.9011 0.264631 53.1623 0.100812 52.4133 0C35.6145 2.24054 18.8158 4.4836 2.01703 6.72414C1.38699 6.98877 0.805012 7.31136 0.433056 7.91875C0.0535084 8.53874 -0.0628851 9.20662 0.0307365 9.91482C1.24023 18.9198 2.44466 27.9223 3.6668 36.9248C3.78826 37.817 4.18552 38.5025 4.77761 38.9259V38.9965C4.77761 40.7531 5.92384 41.8671 7.67735 41.8671C24.2914 41.8696 40.9054 41.8696 57.5195 41.8671C59.0301 41.8671 59.9638 41.1311 60.3357 39.6895C60.361 39.5862 60.4015 39.4879 60.4369 39.3871V11.3615C60.2472 10.9003 60.108 10.4113 59.855 9.98539V9.98791ZM54.2225 7.20299C54.2959 7.74989 54.3692 8.2968 54.4426 8.84622H41.9074C46.0116 8.29932 50.1133 7.75241 54.2225 7.20299ZM2.15367 14.1514C3.02663 14.0355 3.89959 13.9196 4.77255 13.8011C4.77255 15.2074 4.77255 16.6138 4.77255 18.0226C4.08431 18.1133 3.39859 18.2066 2.71287 18.2973C2.52563 16.9036 2.34345 15.5502 2.15621 14.1514H2.15367ZM2.98615 20.4597C2.96338 20.2833 2.93807 20.1044 2.90771 19.8725C3.53017 19.7893 4.15009 19.7062 4.77255 19.623C4.77255 24.3309 4.77255 29.0363 4.77255 33.7442C4.1754 29.316 3.58077 24.8879 2.98615 20.4572V20.4597ZM5.43802 9.82157C4.97751 10.3861 4.77508 11.0338 4.77255 11.7471C4.77255 11.8882 4.77255 12.0268 4.77255 12.168C3.82368 12.294 2.87481 12.42 1.92595 12.5485C1.78931 11.5303 1.63243 10.5575 1.53374 9.57962C1.4553 8.80842 1.86522 8.3346 2.63443 8.21111C2.76095 8.19094 2.89 8.17582 3.01651 8.15818C19.2839 5.98821 35.5538 3.81572 51.8212 1.64575C53.1142 1.47185 53.5266 1.78185 53.6987 3.05459C53.81 3.88377 53.9214 4.71546 54.0403 5.59252C45.9129 6.67625 37.7881 7.75998 29.6633 8.84622H7.16623C6.50581 9.02516 5.88842 9.26711 5.43549 9.82157H5.43802ZM58.8833 22.5919C58.8833 27.9727 58.8833 33.356 58.8833 38.7369C58.8833 39.9869 58.5063 40.3574 57.2386 40.3574C40.8068 40.3574 24.3749 40.3574 7.9405 40.3574C6.67281 40.3574 6.29833 39.9895 6.29833 38.7343C6.29833 33.3535 6.29833 27.9702 6.29833 22.5894V21.9971H58.8833V22.5919ZM6.31351 20.4093V16.2256H58.8479V20.4093H6.31351ZM58.8833 14.6076H6.30339C6.30339 13.5793 6.27808 12.5939 6.31098 11.611C6.33628 10.8347 6.80692 10.4214 7.58373 10.4012C7.71277 10.3987 7.83929 10.4012 7.96834 10.4012C24.3825 10.4012 40.7941 10.4012 57.2083 10.4012C58.5139 10.4012 58.8808 10.7616 58.8833 12.047C58.8833 12.8837 58.8833 13.723 58.8833 14.6076Z" fill="#58456A"/>
<path d="M44.3998 36.0956C46.1406 36.1132 47.884 36.1132 49.6274 36.0956C50.9027 36.083 51.8415 35.1354 51.8516 33.8651C51.8642 32.1513 51.8642 30.435 51.8516 28.7212C51.8415 27.4107 50.9052 26.4832 49.5971 26.4706C48.7342 26.4605 47.8739 26.4706 47.0111 26.4706C46.1482 26.4706 45.2879 26.463 44.4251 26.4706C43.1397 26.4832 42.1858 27.4006 42.1731 28.6708C42.1554 30.4048 42.1579 32.1362 42.1731 33.8702C42.1832 35.1429 43.1245 36.0855 44.4023 36.0981L44.3998 36.0956ZM43.704 28.812C43.7065 28.2197 43.9393 27.9954 44.5466 27.9929C46.1963 27.9853 47.8461 27.9853 49.4984 27.9929C50.0981 27.9954 50.3182 28.2222 50.3207 28.8296C50.3283 30.4703 50.3283 32.1135 50.3207 33.7542C50.3182 34.349 50.0879 34.5708 49.4781 34.5759C48.6533 34.5834 47.8284 34.5759 47.0035 34.5759C46.1963 34.5759 45.3892 34.5809 44.582 34.5759C43.9393 34.5708 43.704 34.3516 43.7014 33.7341C43.6938 32.0934 43.6938 30.4501 43.7014 28.8094L43.704 28.812Z" fill="#58456A"/>
<path d="M13.7071 29.4017C13.8817 29.442 14.0714 29.4244 14.2536 29.4244C17.0926 29.4244 19.9342 29.4244 22.7732 29.4244C25.6122 29.4244 28.4537 29.4244 31.2928 29.4244C31.4749 29.4244 31.6647 29.4395 31.8393 29.4017C32.2214 29.3185 32.4592 29.069 32.4643 28.6759C32.4694 28.255 32.2214 27.9979 31.814 27.9173C31.6546 27.8845 31.4851 27.9021 31.3206 27.9021C25.6223 27.9021 19.924 27.9021 14.2258 27.9021C14.0613 27.9021 13.8918 27.887 13.7324 27.9173C13.3503 27.9904 13.1074 28.2147 13.0897 28.6204C13.0694 29.0489 13.2997 29.3085 13.7045 29.4042L13.7071 29.4017Z" fill="#58456A"/>
<path d="M31.8494 33.1771C31.7305 33.0864 31.4952 33.1469 31.3105 33.1469C28.4715 33.1469 25.6299 33.1469 22.7909 33.1469C19.9519 33.1469 17.3305 33.1469 14.6028 33.1469C14.327 33.1469 14.0512 33.1292 13.7779 33.1569C13.363 33.2023 13.1099 33.4443 13.0922 33.8727C13.0745 34.3037 13.3174 34.5507 13.7197 34.649C13.8412 34.6792 13.9753 34.6691 14.1018 34.6691C19.8912 34.6691 25.6805 34.6691 31.4699 34.6691C31.6318 34.6691 31.857 34.6943 31.9431 34.6036C32.1531 34.3868 32.4466 34.0995 32.4289 33.8601C32.4112 33.6182 32.0898 33.3636 31.8469 33.1821L31.8494 33.1771Z" fill="#58456A"/>
</svg>
