<svg width="58" height="49" viewBox="0 0 58 49" fill="none" xmlns="http://www.w3.org/2000/svg">
<path d="M49.0296 48.9617C48.4932 48.7701 48.0858 48.3871 47.643 47.8729C46.6284 46.6934 45.6036 45.5215 44.5813 44.3495C43.5743 43.1953 42.5697 42.041 41.5703 40.8816C41.1932 40.4431 40.7606 40.2465 40.1685 40.2465C36.0694 40.2541 31.9778 40.2566 27.8838 40.2566C25.0954 40.2566 22.307 40.2566 19.5211 40.2566C19.0935 40.2566 18.7468 40.1432 18.552 39.9416C18.4002 39.7853 18.3293 39.5686 18.3394 39.2989C18.3546 38.8881 18.6987 38.51 19.1036 38.4571C19.2757 38.4344 19.4629 38.4319 19.6552 38.4319H29.2628C32.7192 38.4319 36.8107 38.4319 40.9453 38.4168C41.6411 38.4168 42.0763 38.6159 42.509 39.1275C43.7489 40.5943 45.0317 42.0636 46.2741 43.4826C46.7296 44.0017 47.1825 44.5234 47.6354 45.0426C47.7215 45.1409 47.8075 45.2342 47.9188 45.3526L48.1086 45.5542L48.974 46.4868L49.0701 45.219C49.0777 45.1334 49.0828 45.0603 49.0904 44.9922C49.103 44.8435 49.1131 44.7251 49.1131 44.6066C49.1131 43.911 49.1131 43.2154 49.1131 42.5198C49.1131 41.552 49.1131 40.5817 49.1157 39.6114C49.1182 38.7192 49.4244 38.4168 50.3277 38.4067C50.4795 38.4067 50.6288 38.4067 50.7806 38.4067H52.0179C52.3039 38.4092 52.5872 38.4067 52.8706 38.4042C54.8898 38.3639 56.0968 37.1491 56.0993 35.1555C56.1069 28.0886 56.1069 20.9613 56.0993 13.9674C56.0993 12.1075 55.0164 10.928 53.1313 10.7289C52.4683 10.6583 52.0913 10.2677 52.147 9.70815C52.2026 9.13353 52.7239 8.92938 53.1895 8.92938C53.2249 8.92938 53.2628 8.92938 53.3008 8.9319C55.6844 9.0806 57.4784 10.6936 57.8756 13.04C57.8933 13.1509 57.9287 13.2466 57.9591 13.3172V35.831C57.9287 35.894 57.8958 35.9746 57.8807 36.0754C57.5188 38.2983 55.8564 39.9088 53.6474 40.1734C53.4324 40.1986 53.1996 40.2112 52.9137 40.2112C52.6935 40.2112 52.4709 40.2037 52.2431 40.1986C52.0002 40.1911 51.7522 40.1835 51.4992 40.1835H50.9425V43.102C50.9425 44.4403 50.94 45.7785 50.9425 47.1193C50.9451 47.7897 50.7426 48.2535 50.3024 48.5836C50.1581 48.6895 49.976 48.7802 49.7837 48.876C49.7255 48.9037 49.6673 48.934 49.6091 48.9642H49.0296V48.9617Z" fill="#58456A"/>
<path d="M8.68377 40.0323C8.52689 40.0323 8.3599 40.0071 8.1853 39.9617C7.44392 39.7576 7.03401 39.1829 7.02642 38.3412C7.01629 36.9953 7.01882 35.647 7.01882 34.3011V31.4356L5.82705 31.3751C5.36906 31.3524 4.93385 31.3322 4.4961 31.3045C1.97591 31.1483 0.0022611 28.9707 0.0022611 26.3471V20.6941C-0.000269213 15.5653 -0.00279458 10.2626 0.00732667 5.04814C0.0123873 2.6211 1.4243 0.796412 3.78508 0.166339C4.18234 0.0604869 4.65804 0.00756104 5.23748 0.00756104C12.5805 0.00252046 19.9234 0 27.2664 0C31.9348 0 36.6033 0 41.2717 0C43.8627 0 45.6593 1.32063 46.3348 3.71743C46.4538 4.13832 46.512 4.62473 46.512 5.21196C46.5221 11.2657 46.5246 17.9218 46.5196 26.1657C46.5196 28.7187 45.1481 30.5459 42.7646 31.1785C42.2155 31.3247 41.6057 31.3448 41.0819 31.3448C37.3801 31.3499 33.6782 31.3549 29.9764 31.3549C25.9329 31.3549 21.892 31.3499 17.8486 31.3423C17.1932 31.3423 16.7327 31.5566 16.3051 32.0556C14.9235 33.6711 13.504 35.3017 12.1326 36.8819C11.4292 37.6935 10.7232 38.5025 10.0198 39.3165C9.60228 39.7979 9.16454 40.0323 8.67619 40.0323H8.68377ZM7.57296 29.5126C8.52689 29.5126 8.8356 29.8226 8.8356 30.7803C8.8356 32.0404 8.8356 33.3006 8.8356 34.5607V36.4862L9.68325 36.9777L9.98182 36.5871L10.0729 36.4636C10.1235 36.393 10.1767 36.3224 10.2323 36.2569C10.751 35.6596 11.2723 35.0623 11.7935 34.465C13.0055 33.0763 14.2581 31.6397 15.4701 30.2082C15.8901 29.7117 16.3253 29.5101 16.9756 29.5101C21.472 29.5202 25.9582 29.5227 30.447 29.5227H41.2616C43.4579 29.5227 44.6674 28.323 44.6699 26.1505C44.6699 19.1844 44.6699 12.2184 44.6699 5.25229C44.6699 3.06467 43.4478 1.85745 41.2312 1.85745H5.31086C3.05635 1.85745 1.86457 3.04703 1.86457 5.29765C1.86457 8.52866 1.86457 11.7597 1.86457 14.9907V18.388C1.86457 19.1567 1.86457 19.9254 1.86457 20.6941C1.86457 22.5364 1.85952 24.4393 1.87217 26.3144C1.88482 28.2399 3.14998 29.495 5.09832 29.5101C5.38677 29.5101 5.67776 29.5126 5.96621 29.5126H7.29969H7.58056H7.57296Z" fill="#58456A"/>
<path d="M17.3678 17.3875C16.6973 17.3875 16.1684 16.8708 16.1634 16.213C16.1608 15.8955 16.2798 15.5981 16.4999 15.3763C16.7226 15.1495 17.0262 15.0234 17.3526 15.0234C18.0282 15.0234 18.5545 15.5376 18.5596 16.1954C18.5621 16.5129 18.4432 16.8128 18.2205 17.0372C17.9978 17.2615 17.6968 17.3875 17.3754 17.39H17.3678V17.3875Z" fill="#58456A"/>
<path d="M23.2609 17.3875C22.9396 17.3875 22.6384 17.2615 22.4082 17.0346C22.1805 16.8103 22.0565 16.5129 22.0565 16.2004C22.0565 15.5502 22.6005 15.0184 23.2634 15.0184C23.5873 15.0184 23.8935 15.1444 24.1212 15.3712C24.3439 15.5955 24.4679 15.8904 24.4679 16.2029C24.4679 16.8557 23.9264 17.3875 23.2634 17.3875H23.2609Z" fill="#58456A"/>
<path d="M29.1667 17.3875C28.5088 17.3875 27.9673 16.8607 27.9597 16.2105C27.9572 15.898 28.0761 15.6031 28.2988 15.3788C28.5265 15.1495 28.8276 15.0209 29.1515 15.0184C29.8296 15.0184 30.361 15.5351 30.3686 16.1929C30.3711 16.5029 30.2496 16.7977 30.027 17.0246C29.7992 17.2564 29.4956 17.385 29.1742 17.3875H29.1641H29.1667Z" fill="#58456A"/>
</svg>
