<?xml version="1.0" encoding="utf-8"?>
<!-- Generator: Adobe Illustrator 27.2.0, SVG Export Plug-In . SVG Version: 6.00 Build 0)  -->
<svg version="1.1" id="Capa_1" xmlns="http://www.w3.org/2000/svg" xmlns:xlink="http://www.w3.org/1999/xlink" x="0px" y="0px"
	 viewBox="0 0 614.7 608.1" style="enable-background:new 0 0 614.7 608.1;" xml:space="preserve">
<style type="text/css">
	.st0{fill:#FFFFFF;}
</style>
<g>
	<g>
		<path class="st0" d="M67,129.4l-24-4.1c-0.3,0-0.5,0.1-0.6,0.3l-2,3.1c-0.2,0.2-0.1,0.4,0.1,0.6l18.3,11.9
			c0.3,0.2,0.5,0.5,0.6,0.8c0.1,0.3,0,0.7-0.2,1l-7.6,11.6c-0.2,0.3-0.5,0.6-0.8,0.6c-0.3,0.1-0.7,0-1-0.2L0.6,122.9
			c-0.3-0.2-0.5-0.5-0.6-0.8c-0.1-0.3,0-0.7,0.2-1l14.5-22.3c2.2-3.3,4.8-5.8,7.8-7.5c3-1.6,6.2-2.3,9.6-2.1
			c3.4,0.2,6.7,1.4,9.9,3.5c3.2,2.1,5.6,4.7,6.9,7.9c1.4,3.2,1.7,6.5,1.1,10.1c-0.1,0.3,0.1,0.5,0.4,0.6l25.5,3.3
			c0.4,0.1,0.6,0.2,0.6,0.2c0.2,0.2,0.4,0.4,0.4,0.7c0,0.3-0.1,0.6-0.3,0.9l-8,12.4C68.2,129.3,67.7,129.5,67,129.4z M20.7,116.3
			l8.6,5.6c0.2,0.2,0.4,0.1,0.6-0.1l4.5-6.9c1-1.6,1.4-3.1,1.2-4.7c-0.2-1.5-1-2.8-2.4-3.6c-1.4-0.9-2.9-1.2-4.4-0.8
			c-1.5,0.4-2.8,1.4-3.8,3l-4.5,6.9C20.5,116,20.5,116.2,20.7,116.3z"/>
		<path class="st0" d="M67.2,39.8c3.4-1.1,6.8-1.2,10.2-0.3c3.4,0.9,6.5,2.7,9.4,5.5c2.8,2.7,4.7,5.8,5.6,9.1
			c0.9,3.4,0.8,6.8-0.3,10.3C91,67.9,89,71.2,86,74.2l-6.5,6.7c-0.2,0.2-0.2,0.4,0,0.6l14.2,13.7c0.3,0.3,0.4,0.6,0.5,0.9
			c0,0.3-0.1,0.6-0.4,0.9l-9.6,10c-0.3,0.3-0.6,0.4-0.9,0.5c-0.3,0-0.6-0.1-0.9-0.4L40,66.3c-0.3-0.3-0.4-0.6-0.5-0.9
			c0-0.3,0.1-0.6,0.4-0.9L57.8,46C60.7,43,63.8,40.9,67.2,39.8z M77.6,61.6c0.1-1.7-0.5-3.3-1.9-4.6c-1.4-1.3-3-1.9-4.7-1.8
			c-1.8,0.1-3.4,1-4.9,2.5L61,63c-0.2,0.2-0.2,0.4,0,0.6l8.5,8.2c0.2,0.2,0.4,0.2,0.6,0l5.1-5.3C76.7,64.9,77.5,63.3,77.6,61.6z"/>
		<path class="st0" d="M149.5,48l-5.6-4.4c-0.2-0.1-0.4-0.1-0.6,0l-15.1,10.8c-0.1,0.1-0.2,0.3-0.2,0.5l2.4,6.7
			c0.3,0.7,0.1,1.3-0.5,1.8l-12.2,8.7c-0.9,0.6-1.5,0.4-1.8-0.5L96.8,12.9c-0.2-0.7,0-1.3,0.6-1.7l15.1-10.8c0.6-0.4,1.2-0.4,1.8,0
			l49.3,37.1c0.1,0.1,0.2,0.2,0.4,0.4c0.4,0.5,0.2,1-0.4,1.5l-12.2,8.7C150.7,48.5,150.1,48.5,149.5,48z M124,41.9l8.9-6.4
			c0.3-0.2,0.3-0.4,0-0.6l-16-12.7c-0.2-0.1-0.3-0.1-0.4-0.1c-0.1,0.1-0.1,0.2-0.1,0.4l6.9,19.2C123.5,42,123.7,42,124,41.9z"/>
	</g>
	<g>
		<path class="st0" d="M407.4,601l-4.2-6.9c-0.1-0.1-0.2-0.1-0.3-0.1l-17.7,4.3c-0.1,0-0.2,0.1-0.2,0.2l-0.6,8
			c0,0.3-0.2,0.6-0.6,0.6l-3.2,0.8c-0.4,0.1-0.6-0.1-0.6-0.5l3.3-43.4c0-0.3,0.2-0.6,0.6-0.6l4-1c0.4-0.1,0.6,0,0.8,0.3l22.9,37
			l0.1,0.2c0.1,0.3-0.1,0.5-0.4,0.5l-3.2,0.8C407.8,601.4,407.6,601.3,407.4,601z M385.4,594.6c0.1,0,0.1,0.1,0.2,0l15.2-3.7
			c0.1,0,0.1-0.1,0.2-0.1c0-0.1,0-0.1,0-0.2l-13.5-22.2c-0.1-0.1-0.1-0.1-0.2-0.1c-0.1,0-0.1,0.1-0.1,0.2l-1.8,26
			C385.3,594.5,385.3,594.6,385.4,594.6z"/>
		<path class="st0" d="M431.2,547.6l2.9-1.2c0.4-0.2,0.6,0,0.8,0.3l15.5,38.3c0.2,0.4,0,0.6-0.3,0.8l-2.8,1.1
			c-0.3,0.1-0.5,0.1-0.8-0.1l-31.8-23.5c-0.1-0.1-0.2-0.1-0.2-0.1c-0.1,0-0.1,0.1,0,0.2l12.6,31c0.2,0.4,0,0.6-0.3,0.8l-2.9,1.2
			c-0.4,0.2-0.6,0-0.8-0.3l-15.5-38.3c-0.2-0.4,0-0.6,0.3-0.8l2.8-1.1c0.3-0.1,0.5-0.1,0.8,0.1l31.8,23.5c0.1,0.1,0.2,0.1,0.2,0.1
			c0.1,0,0.1-0.1,0-0.2l-12.6-31C430.7,548,430.8,547.7,431.2,547.6z"/>
		<path class="st0" d="M471.8,573.5l-9-15.6c-0.1-0.1-0.1-0.2-0.2-0.2l-22.4-13.5c-0.2-0.1-0.2-0.2-0.3-0.3c-0.1-0.2,0-0.4,0.3-0.6
			l2.8-1.6c0.3-0.2,0.6-0.2,0.8,0l18.1,10.9c0.1,0,0.1,0,0.2,0c0.1,0,0.1-0.1,0.1-0.1l-0.4-21.2c0-0.3,0.1-0.6,0.4-0.7l2.8-1.6
			c0.2-0.1,0.4-0.1,0.5-0.1c0.1,0.1,0.2,0.2,0.2,0.5l0.5,26.1c0,0.1,0,0.2,0.1,0.3l9,15.6c0.2,0.4,0.1,0.6-0.2,0.8l-2.7,1.5
			C472.3,574,472,573.9,471.8,573.5z"/>
		<path class="st0" d="M497.9,548.5c0.1,0.1,0.1,0,0.2,0l12.7-9.6c0.2-0.1,0.3-0.2,0.5-0.1c0.2,0,0.3,0.2,0.4,0.3l3,5.1
			c0.1,0.2,0.1,0.4,0.1,0.6c0,0.2-0.1,0.4-0.3,0.5l-21.1,16c-0.2,0.1-0.3,0.2-0.5,0.1c-0.2,0-0.3-0.2-0.4-0.3l-2.8-4.9
			c-0.2-0.4-0.2-0.7-0.2-1c0.7-3.9,1.5-8.8,2.3-14.8l0.8-5.6c0.8-5.7,0.7-9.4-0.3-11.2l-0.4-0.6c-0.8-1-1.7-1.5-2.9-1.6
			c-1.2-0.1-2.3,0.3-3.5,1.2c-1.3,1-2,2.1-2.3,3.5c-0.3,1.4-0.1,2.7,0.7,4l0.8,1.3c0.1,0.2,0.1,0.4,0.1,0.6c0,0.2-0.1,0.4-0.3,0.5
			l-5.6,4.2c-0.2,0.1-0.3,0.2-0.5,0.1c-0.2,0-0.3-0.2-0.4-0.3l-1.4-2.5c-1.5-3-1.8-6.2-0.8-9.5s3-6.1,6.1-8.4c2-1.5,4.1-2.5,6.1-2.9
			c2-0.4,3.9-0.3,5.7,0.4c1.7,0.7,3.2,1.8,4.4,3.5c1.2,1.6,2,3.5,2.3,5.7c0.4,2.3,0.4,4.9,0.1,8.1c-0.2,2-0.5,4.4-0.9,7.2
			s-0.9,5.5-1.4,8.3l-0.4,1.9C497.8,548.4,497.8,548.5,497.9,548.5z"/>
		<path class="st0" d="M527.1,532.3c-2.6,0.8-5.1,0.8-7.6,0.2c-2.5-0.7-4.7-2.1-6.8-4.1l-9.8-10c-2-2.1-3.4-4.4-4-6.9
			c-0.6-2.5-0.5-5,0.3-7.6c0.9-2.5,2.4-4.9,4.7-7.1c2.2-2.2,4.6-3.7,7.1-4.5c2.5-0.8,5-1,7.4-0.4c2.4,0.6,4.6,1.9,6.6,3.9
			c0.3,0.3,0.2,0.6-0.1,1l-4.8,5.3l-0.1,0.1c-0.3,0.3-0.6,0.3-0.9-0.1c-1.5-1.5-3.2-2.3-5-2.3c-1.8,0-3.5,0.7-5.1,2.3
			c-1.6,1.5-2.4,3.2-2.4,5.1c0,1.8,0.7,3.5,2.2,5.1l10.3,10.5c1.5,1.5,3.1,2.3,5,2.3c1.8,0,3.6-0.8,5.1-2.3c1.5-1.5,2.3-3.2,2.3-5
			c0-1.8-0.7-3.5-2.2-5c-0.3-0.3-0.3-0.6,0.1-1l5.3-4.8c0.1-0.1,0.3-0.2,0.5-0.2c0.2,0,0.3,0,0.5,0.2c2,2,3.2,4.2,3.8,6.7
			c0.6,2.5,0.4,4.9-0.5,7.4c-0.9,2.5-2.4,4.8-4.6,7C532.1,530,529.7,531.5,527.1,532.3z"/>
		<path class="st0" d="M551.6,508.8c-0.2,0-0.4,0-0.5-0.2l-32.4-25.3c-0.2-0.1-0.3-0.3-0.3-0.5s0-0.4,0.2-0.5l4.4-5.6
			c0.1-0.2,0.3-0.3,0.5-0.3c0.2,0,0.4,0,0.5,0.2l26.9,21c0.2,0.1,0.3,0.1,0.4-0.1l12.2-15.7c0.1-0.2,0.3-0.3,0.5-0.3
			c0.2,0,0.4,0,0.5,0.2l4.6,3.6c0.2,0.1,0.3,0.3,0.3,0.5c0,0.2,0,0.4-0.2,0.5l-17.3,22.1C551.9,508.6,551.8,508.7,551.6,508.8z"/>
		<path class="st0" d="M576.8,472.4c-2.3,1.4-4.9,2.1-7.5,2.1c-2.7,0-5.3-0.8-8-2.4l-11.2-6.6c-2.6-1.5-4.5-3.4-5.8-5.8
			c-1.3-2.3-1.9-4.8-1.8-7.6c0.1-2.7,1-5.4,2.6-8.2c1.6-2.8,3.6-4.9,5.9-6.3c2.3-1.4,4.8-2.1,7.5-2.1s5.3,0.8,7.9,2.3l11.2,6.6
			c2.6,1.5,4.6,3.5,5.9,5.8c1.3,2.3,2,4.9,1.8,7.6c-0.1,2.7-1,5.5-2.6,8.2C581.1,469,579.1,471,576.8,472.4z M577.2,456.8
			c-0.5-1.9-1.8-3.5-3.8-4.6l-11.5-6.8c-2-1.2-4-1.6-5.9-1.1c-1.9,0.4-3.5,1.6-4.6,3.6c-1.1,1.9-1.4,3.8-0.9,5.7
			c0.6,1.9,1.8,3.4,3.9,4.6l11.5,6.8c2,1.2,4,1.6,5.9,1.1c1.9-0.4,3.4-1.6,4.6-3.6C577.5,460.6,577.8,458.7,577.2,456.8z"/>
		<path class="st0" d="M596.3,435.7c-2,1.7-4.3,2.8-6.9,3.2c-2.5,0.4-5.1,0-7.8-1.1L556,427.1c-0.2-0.1-0.3-0.2-0.4-0.4
			c-0.1-0.2-0.1-0.4,0-0.6l2.7-6.6c0.1-0.2,0.2-0.3,0.4-0.4c0.2-0.1,0.4-0.1,0.6,0l25.7,10.6c2,0.8,3.8,0.9,5.6,0.2s3-2.1,3.8-4
			s0.9-3.8,0.2-5.6s-2.1-3-4-3.8L564.8,406c-0.2-0.1-0.3-0.2-0.4-0.4c-0.1-0.2-0.1-0.4,0-0.6l2.7-6.6c0.1-0.2,0.2-0.3,0.4-0.4
			c0.2-0.1,0.4-0.1,0.6,0l25.6,10.6c2.7,1.1,4.8,2.7,6.3,4.7c1.5,2.1,2.4,4.4,2.6,7.1c0.2,2.7-0.3,5.4-1.5,8.3
			C599.9,431.6,598.3,433.9,596.3,435.7z"/>
		<path class="st0" d="M609.9,403.5c-0.2,0.1-0.4,0.1-0.6,0.1l-39.8-10.2c-0.2-0.1-0.3-0.2-0.4-0.3s-0.1-0.4-0.1-0.6l3.8-14.7
			c0.8-2.9,1.9-5.4,3.5-7.3c1.6-2,3.5-3.3,5.7-4c2.2-0.7,4.5-0.8,7-0.2l16.2,4.2c2.5,0.6,4.5,1.8,6.1,3.5c1.6,1.7,2.6,3.8,3.1,6.3
			c0.5,2.5,0.3,5.2-0.4,8.1l-3.8,14.7C610.2,403.2,610.1,403.4,609.9,403.5z M605.1,393.3l1.8-7.1c0.5-1.8,0.2-3.4-0.7-4.9
			s-2.4-2.4-4.4-3l-13.5-3.5c-2-0.5-3.8-0.4-5.3,0.4c-1.5,0.8-2.5,2.2-3,4l-1.8,7.1c-0.1,0.2,0,0.3,0.2,0.4l26.4,6.8
			C605,393.6,605.1,393.5,605.1,393.3z"/>
	</g>
	<g>
		<path class="st0" d="M407.5,273.9c-6.3-2.2-12.6-4.4-18.8-6.7c-4-1.4-6.4-4.2-7.9-8.2c-2-5.6-4.2-11.2-6.8-16.5
			c-2.1-4.4-2.3-8.5-0.1-12.9c2.8-5.6,5.5-11.4,8.2-17.1c0.2-0.4,0.4-0.8,0.6-1.3c-0.2-0.3-0.3-0.6-0.6-0.8
			c-4.5-4.5-8.9-8.9-13.4-13.4c-0.6-0.6-1.1-0.7-1.9-0.3c-6,2.9-12.1,5.7-18.1,8.6c-4.1,2-7.9,1.8-12.1-0.2
			c-5.2-2.5-10.6-4.7-16.1-6.6c-4.5-1.6-7.6-4.2-9.2-8.7c-2.1-6.2-4.4-12.4-6.6-18.5c-0.3-0.9-0.7-1.3-1.7-1.4
			c-6.2-0.6-12.4-0.6-18.6,0c-0.9,0.1-1.4,0.4-1.7,1.3c-2.1,6.1-4.4,12.2-6.4,18.3c-1.5,4.3-4.1,7.4-8.6,8.7
			c-6,1.8-11.8,4.2-17.3,7.1c-3.7,2-7.4,1.9-11.2,0.1c-6.1-2.9-12.2-5.8-18.3-8.7c-0.8-0.4-1.3-0.3-1.9,0.3
			c-4.5,4.5-8.9,9-13.4,13.4c-0.6,0.6-0.5,1.1-0.2,1.8c2.9,6,5.7,12.1,8.6,18.1c1.9,3.9,1.9,7.8-0.2,11.6
			c-2.9,5.5-5.3,11.3-7.1,17.2c-1.2,4-3.9,6.7-7.8,8.1c-6.3,2.3-12.6,4.5-19,6.7c-1,0.3-1.5,0.9-1.5,1.9c0,6.1,0,12.2,0,18.3
			c0,1.1,0.5,1.5,1.5,1.9c6.3,2.2,12.6,4.5,18.8,6.7c3.9,1.4,6.6,3.9,7.8,7.9c1.9,6.2,4.3,12.1,7.3,17.8c2,3.7,1.9,7.4,0.1,11.2
			c-2.9,6.1-5.8,12.1-8.7,18.2c-0.4,0.8-0.4,1.3,0.3,2c4.5,4.4,8.9,8.9,13.3,13.3c0.6,0.6,1.2,0.7,2,0.3c6.1-2.9,12.1-5.7,18.2-8.7
			c3.9-1.9,7.7-1.6,11.6,0.2c5.5,2.6,11.2,4.8,16.9,7c4,1.5,6.9,3.9,8.3,8c2.2,6.3,4.5,12.6,6.7,19c0.3,0.8,0.5,1.4,1.5,1.4
			c6.3,0,12.6,0,18.9,0c0.9,0,1.3-0.5,1.6-1.3c2.2-6.4,4.5-12.7,6.8-19.1c1.4-3.9,4.1-6.6,8.1-7.8c6.1-1.9,11.9-4.2,17.5-7.2
			c3.7-2,7.5-1.9,11.2-0.1c6.1,2.9,12.2,5.8,18.3,8.7c0.7,0.4,1.2,0.4,1.9-0.2c4.5-4.5,9-9,13.5-13.5c0.6-0.6,0.4-1.1,0.1-1.7
			c-2.9-6-5.7-12-8.5-17.9c-1.9-3.9-2.1-7.8,0-11.7c2.9-5.5,5.3-11.2,7.1-17.2c1.3-4.2,4-6.9,8.1-8.4c6.3-2.2,12.5-4.5,18.8-6.7
			c1-0.3,1.4-0.8,1.4-1.8c0-6.1,0-12.1,0-18.2C409.1,274.9,408.6,274.3,407.5,273.9z M293.8,337.6c-30.7-0.1-55.4-25-55.3-55.8
			c0-30.3,25.1-55.1,55.5-55c30.6,0.1,55.4,25.1,55.3,55.6C349.1,312.9,324.2,337.7,293.8,337.6z"/>
		<path class="st0" d="M295.7,250.9c-19-1.1-33,14.2-33.3,30.6c-0.3,17.7,13.5,32,31.2,32.2c18.2,0.2,31.8-14.7,31.7-31.4
			C325.4,266.5,313.1,251.8,295.7,250.9z"/>
		<path class="st0" d="M291.5,73.5C173,73.5,77,169.6,77,288.1c0,118.5,96,214.5,214.5,214.5S506,406.6,506,288.1
			C506,169.6,410,73.5,291.5,73.5z M431.9,305.6c-0.8,5.2-3.6,8.6-8.6,10.4c-6.7,2.4-13.4,4.8-20.1,7.1c-0.9,0.3-1.4,0.8-1.7,1.7
			c-1.1,2.8-2.3,5.6-3.4,8.4c-0.2,0.6-0.3,1.5,0,2.1c3,6.6,6.2,13.1,9.2,19.6c2.2,4.6,1.8,8.9-1.2,13c-8.4,11.3-18.3,21.2-29.7,29.6
			c-3.9,2.8-8,3.2-12.3,1.2c-6.7-3.1-13.3-6.3-20-9.4c-0.5-0.3-1.4-0.3-1.9-0.1c-2.9,1.1-5.8,2.4-8.7,3.5c-0.8,0.3-1.3,0.8-1.6,1.6
			c-2.4,6.9-4.8,13.7-7.3,20.6c-1.5,4.3-4.5,7.1-9,7.9c-4,0.7-8,1.2-12,1.5c-10.1,0.8-20.2,0.2-30.2-1.3c-5.1-0.8-8.5-3.5-10.3-8.3
			c-2.5-6.8-4.8-13.6-7.3-20.4c-0.2-0.6-0.9-1.3-1.5-1.6c-2.8-1.2-5.6-2.3-8.4-3.5c-0.9-0.4-1.5-0.4-2.4,0
			c-6.4,3.1-12.9,6.2-19.3,9.2c-4.7,2.2-9.1,1.8-13.3-1.3c-11.1-8.3-20.8-18-29.1-29.1c-3.2-4.2-3.5-8.7-1.3-13.4
			c3.1-6.4,6.1-12.9,9.1-19.3c0.3-0.6,0.3-1.4,0.1-1.9c-1.2-3-2.4-6-3.7-9c-0.2-0.5-0.8-1.1-1.4-1.3c-6.8-2.5-13.7-4.8-20.6-7.3
			c-4.3-1.6-7.1-4.6-8-9.1c-0.3-1.5-0.5-3.1-0.7-4.6c-0.4-4-0.8-8-1.2-12.1c0-3.3,0-6.7,0-10c0.1-0.5,0.2-1,0.2-1.5
			c0.4-4.3,0.9-8.5,1.2-12.8c0.5-6.1,3.7-9.9,9.5-11.9c6.4-2.1,12.7-4.5,19-6.7c1.1-0.4,1.7-1,2.2-2.1c1-2.7,2.2-5.4,3.3-8.2
			c0.2-0.7,0.3-1.6,0-2.2c-3.1-6.6-6.2-13.2-9.3-19.7c-2.1-4.4-1.7-8.7,1.2-12.6c8.3-11.3,18.2-21.2,29.5-29.5c4.1-3,8.4-3.4,13-1.3
			c6.4,3,12.9,6.1,19.3,9.2c0.9,0.5,1.7,0.5,2.7,0c2.6-1.2,5.2-2.2,7.9-3.2c1.2-0.4,1.8-1.1,2.2-2.2c2.3-6.7,4.7-13.5,7.1-20.2
			c1.4-3.9,4.1-6.7,8.2-7.7c2.7-0.7,5.5-0.9,8.2-1.2c3.2-0.4,6.4-0.6,9.6-0.9c3,0,6.1,0,9.1,0c0.6,0.1,1.3,0.2,1.9,0.3
			c4.7,0.5,9.4,0.9,14,1.5c5.3,0.6,8.7,3.6,10.5,8.6c2.4,6.7,4.7,13.4,7.2,20.1c0.2,0.6,0.9,1.3,1.5,1.6c2.8,1.3,5.7,2.4,8.5,3.5
			c0.6,0.2,1.5,0.2,2.1,0c6.4-3,12.8-6,19.2-9.1c4.9-2.4,9.4-1.9,13.8,1.3c11,8.2,20.6,17.8,28.8,28.8c3.1,4.2,3.7,8.6,1.4,13.2
			c-3.1,6.5-6.2,13-9.3,19.6c-0.3,0.6-0.3,1.5,0,2.1c1.1,2.9,2.3,5.7,3.5,8.5c0.3,0.6,0.9,1.3,1.6,1.5c6.8,2.5,13.6,4.8,20.4,7.3
			c4.5,1.6,7.4,4.8,8.2,9.5C433.9,277.7,434.1,291.6,431.9,305.6z"/>
	</g>
</g>
</svg>
