<?xml version="1.0" encoding="utf-8"?>
<!-- Generator: Adobe Illustrator 27.2.0, SVG Export Plug-In . SVG Version: 6.00 Build 0)  -->
<svg version="1.1" id="uuid-3dfba2c3-f5a2-4b29-b5a3-f2b9114d2b88"
	 xmlns="http://www.w3.org/2000/svg" xmlns:xlink="http://www.w3.org/1999/xlink" x="0px" y="0px" viewBox="0 0 638.4 638.4"
	 style="enable-background:new 0 0 638.4 638.4;" xml:space="preserve">
<style type="text/css">
	.st0{fill:#73BD2D;}
	.st1{fill:#FFFFFF;}
</style>
<circle class="st0" cx="319.2" cy="319.2" r="319.2"/>
<g>
	<g>
		<path class="st1" d="M319.2,132.3c-103.2,0-186.9,83.7-186.9,186.9S216,506.1,319.2,506.1s186.9-83.7,186.9-186.9
			S422.4,132.3,319.2,132.3L319.2,132.3z M318.6,455c-75.6,0-137.1-61.5-137.1-137.1S243,180.8,318.6,180.8s137.1,61.5,137.1,137.1
			S394.2,455,318.6,455L318.6,455z"/>
		<path class="st1" d="M412.5,260.5c0,0.3,0.1,0.7,0.1,1c0,24-19.5,43.5-43.5,43.5s-43.5-19.5-43.5-43.5c0-22.4,16.9-40.8,38.6-43.2
			c-13.9-6.3-29.3-9.8-45.5-9.8c-61.2,0-110.9,49.8-110.9,110.9s49.7,110.9,110.9,110.9s110.9-49.8,110.9-110.9
			C429.5,297.7,423.2,277.5,412.5,260.5L412.5,260.5z"/>
	</g>
</g>
</svg>
