<?xml version="1.0" encoding="utf-8"?>
<!-- Generator: Adobe Illustrator 27.2.0, SVG Export Plug-In . SVG Version: 6.00 Build 0)  -->
<svg version="1.1" id="Capa_1" xmlns="http://www.w3.org/2000/svg" xmlns:xlink="http://www.w3.org/1999/xlink" x="0px" y="0px"
	 viewBox="0 0 80 80" style="enable-background:new 0 0 80 80;" xml:space="preserve">
<style type="text/css">
	.st0{fill:#FFFFFF;}
</style>
<path class="st0" d="M40,0C17.9,0,0,17.9,0,40s17.9,40,40,40s40-17.9,40-40S62.1,0,40,0z M39.9,69.1c-16.2,0-29.3-13.2-29.3-29.3
	s13.2-29.3,29.3-29.3c16.2,0,29.3,13.2,29.3,29.3S56,69.1,39.9,69.1z"/>
<path class="st0" d="M60.5,27.8c0,0.1,0,0.1,0,0.2c0,5.1-4.2,9.3-9.3,9.3s-9.3-4.2-9.3-9.3c0-4.8,3.6-8.7,8.3-9.3
	c-3-1.3-6.3-2.1-9.7-2.1c-13.1,0-23.8,10.7-23.8,23.8c0,13.1,10.7,23.8,23.8,23.8c13.1,0,23.8-10.7,23.8-23.8
	C64.2,35.8,62.8,31.5,60.5,27.8z"/>
</svg>
