<svg width="58" height="58" viewBox="0 0 58 58" fill="none" xmlns="http://www.w3.org/2000/svg">
<path d="M13.361 48.2546C13.3757 48.1793 13.383 48.1599 13.3842 48.1392C13.4428 46.0159 12.6772 44.2452 11.0873 42.8272C9.40707 41.3319 7.72927 39.8341 6.03194 38.3606C5.1442 37.5905 4.56661 36.66 4.265 35.5291C2.92301 30.4988 1.57857 25.4698 0.207272 20.4493C-0.306812 18.5665 0.11569 17.0323 1.6958 15.8309C1.83623 15.724 1.92048 15.4665 1.92537 15.2758C1.96688 13.2751 3.29178 11.6474 5.14542 11.351C7.06499 11.0448 8.91497 12.1964 9.56948 14.0829C10.9567 18.0867 12.3487 22.088 13.7579 26.0845C13.8421 26.3214 14.046 26.5716 14.2634 26.7004C17.0182 28.3305 19.7938 29.9267 22.5474 31.5581C25.5147 33.3158 27.0117 35.9348 27.0349 39.3664C27.0545 42.3158 27.0386 45.264 27.0386 48.2595C27.8714 48.4138 28.0326 48.9823 28.024 49.733C27.9959 52.0556 28.0155 54.3793 28.013 56.7031C28.013 57.6871 27.6955 57.9993 26.6955 57.9993C22.3691 58.0005 18.0439 58.0005 13.7176 57.9993C12.7297 57.9993 12.4183 57.6834 12.4171 56.6873C12.4159 54.3235 12.4159 51.9596 12.4171 49.5957C12.4171 48.7527 12.5514 48.5668 13.3622 48.2546H13.361ZM25.0873 48.2777C25.0873 45.1899 25.1215 42.1603 25.0763 39.1332C25.0396 36.6758 23.937 34.7589 21.8672 33.4081C21.4093 33.1093 20.9282 32.8481 20.4556 32.5724C18.0403 31.1645 15.6286 29.7494 13.2059 28.3524C12.1106 27.7207 10.8516 28.0888 10.362 29.1493C9.92238 30.1041 10.2631 31.1244 11.2412 31.6929C12.9922 32.7121 14.7555 33.7106 16.5078 34.7273C17.1757 35.1148 17.3638 35.6493 17.0475 36.1753C16.7447 36.677 16.1879 36.7754 15.5602 36.417C13.7835 35.4027 12.0019 34.3933 10.2386 33.3559C8.3789 32.2626 7.7537 30.2413 8.61946 28.2747C8.70127 28.0876 8.76233 27.8337 8.70371 27.6527C7.72561 24.5977 6.73529 21.5462 5.72666 18.5009C5.46901 17.7235 4.87311 17.2728 4.0684 17.1586C2.67024 16.9606 1.64085 18.2324 2.03038 19.6841C3.39924 24.7896 4.78885 29.8903 6.15283 34.997C6.35919 35.7684 6.73896 36.3927 7.34096 36.9187C9.38387 38.708 11.3975 40.5289 13.4477 42.3085C14.7421 43.4321 15.388 44.8109 15.3416 46.5176C15.3258 47.097 15.3392 47.6764 15.3392 48.2777H25.0873ZM26.019 56.0338V50.2893H14.3965V56.0338H26.019ZM11.6747 26.0894C10.3363 22.2423 9.0151 18.4377 7.68653 14.6344C7.44964 13.9578 6.95265 13.5314 6.27005 13.331C5.04895 12.9726 3.80464 13.9663 3.96217 15.1689C5.95257 15.3948 7.17367 16.4881 7.76102 18.3904C8.54619 20.9304 9.39486 23.4509 10.2179 25.9788C10.2716 26.1428 10.3437 26.3007 10.4059 26.4574C10.8345 26.3323 11.2204 26.2205 11.6734 26.0894H11.6747Z" fill="#F49337"/>
<path d="M44.5846 48.2631C45.3942 48.4162 45.5762 48.9555 45.5688 49.6892C45.5444 52.0313 45.5615 54.3745 45.5591 56.7165C45.5591 57.6713 45.2355 57.998 44.2891 57.998C39.9444 58.0005 35.601 58.0005 31.2563 57.998C30.2733 57.998 29.9631 57.6798 29.9631 56.68C29.9619 54.3174 29.9619 51.9547 29.9631 49.5921C29.9631 48.7527 30.0975 48.5668 30.9376 48.2413C30.9376 45.2275 30.9266 42.1992 30.9412 39.1708C30.9522 36.8713 31.7313 34.844 33.3468 33.2004C34.0038 32.5311 34.7902 31.9565 35.5985 31.4706C38.2532 29.8733 40.9494 28.3451 43.6151 26.7647C43.8801 26.608 44.1328 26.3104 44.2342 26.0225C45.6446 22.0504 47.0305 18.0697 48.414 14.0878C49.0783 12.1758 50.888 11.0412 52.8185 11.3461C54.6746 11.6389 56.0044 13.2666 56.0532 15.2612C56.0581 15.4786 56.1973 15.7592 56.3671 15.8941C57.7213 16.9715 58.2928 18.3503 57.8544 20.0193C56.455 25.3435 55.0141 30.658 53.5732 35.9712C53.318 36.9114 52.7331 37.6585 52.0016 38.3011C49.9783 40.0783 47.983 41.8894 45.9388 43.6423C44.99 44.4562 44.4979 45.4049 44.5798 46.6548C44.6139 47.1772 44.5859 47.7032 44.5859 48.2595L44.5846 48.2631ZM42.6358 48.2899C42.6358 47.6133 42.6406 46.9913 42.6358 46.3694C42.6211 44.7562 43.2378 43.4382 44.4564 42.3729C46.5311 40.5593 48.5838 38.7214 50.6547 36.9041C51.2372 36.3927 51.6133 35.7854 51.8148 35.0335C53.1739 29.9461 54.5525 24.8649 55.9189 19.7788C56.2498 18.5471 55.7394 17.5218 54.6636 17.2011C53.6379 16.895 52.5548 17.5437 52.1775 18.6977C51.2262 21.6131 50.2725 24.5284 49.3469 27.4511C49.2615 27.722 49.2883 28.0888 49.4007 28.3524C50.1407 30.0858 49.6803 32.1047 48.1148 33.0947C46.1989 34.307 44.2037 35.3942 42.2303 36.5142C41.7211 36.8033 41.1851 36.6211 40.9164 36.1522C40.6478 35.6821 40.787 35.1756 41.2816 34.8391C41.3988 34.7601 41.5245 34.6933 41.6479 34.6229C43.3171 33.6644 44.9852 32.7048 46.6556 31.7488C47.2479 31.4099 47.685 30.958 47.7644 30.251C47.8523 29.4639 47.6032 28.8055 46.9255 28.3646C46.2087 27.8993 45.476 27.9394 44.7446 28.367C41.9629 29.9923 39.1727 31.6018 36.3971 33.2369C34.0709 34.6059 32.906 36.6588 32.8913 39.3421C32.8767 42.1299 32.8877 44.9178 32.8877 47.7056C32.8877 47.8963 32.8877 48.0882 32.8877 48.2874H42.637L42.6358 48.2899ZM43.5833 50.2845H31.9609V56.029H43.5833V50.2845ZM47.5861 26.4623C47.6484 26.2946 47.7009 26.1647 47.7436 26.0323C48.6033 23.389 49.4678 20.7457 50.3177 18.0988C50.6609 17.0311 51.2726 16.1735 52.2874 15.6779C52.8393 15.4082 53.456 15.2721 54.0592 15.0705C54.0287 14.1886 53.401 13.4257 52.5401 13.2787C51.5669 13.1123 50.6254 13.693 50.2738 14.6976C48.9879 18.3673 47.707 22.0394 46.4261 25.7104C46.3833 25.833 46.3577 25.963 46.3223 26.0966C46.757 26.223 47.1441 26.3347 47.5849 26.4623H47.5861Z" fill="#F49337"/>
<path d="M28.9838 2.81987C29.2952 2.55749 29.5797 2.30239 29.8801 2.06916C33.9171 -1.06121 39.6966 -0.566813 43.1071 3.19887C46.5506 7.00099 46.4932 12.7698 42.8726 16.4444C38.5658 20.8162 34.1833 25.1139 29.8288 29.4408C29.2293 30.036 28.7469 30.036 28.1498 29.4408C23.7966 25.1139 19.4018 20.8271 15.1145 16.4371C12.3731 13.6298 11.6331 10.2128 12.9177 6.52117C14.2048 2.8223 16.9498 0.66493 20.8317 0.104936C23.6842 -0.306859 26.2583 0.502155 28.4673 2.37649C28.6346 2.51862 28.8006 2.66196 28.985 2.82109L28.9838 2.81987ZM28.9105 27.4341C33.2467 23.1679 37.6134 19.0281 41.7883 14.7048C44.4332 11.9656 44.2842 7.50146 41.7712 4.61525C39.2582 1.73025 34.9391 1.09009 31.7215 3.16972C31.0646 3.59366 30.4894 4.15122 29.9106 4.68449C29.1841 5.35503 28.7701 5.36839 28.0533 4.66263C27.8372 4.45005 27.6247 4.23139 27.4025 4.02489C24.8516 1.65858 21.0076 1.27108 18.0476 3.07982C13.6956 5.73767 12.9996 11.583 16.6323 15.2308C20.6192 19.2334 24.6379 23.2031 28.6443 27.1875C28.7433 27.2859 28.8483 27.3758 28.9118 27.4329L28.9105 27.4341Z" fill="#F49337"/>
<path d="M26.0629 10.4812C26.0629 9.52886 26.058 8.66275 26.0641 7.79665C26.0703 6.95848 26.4097 6.60863 27.2352 6.60377C28.4123 6.59649 29.5895 6.59527 30.7666 6.60377C31.5555 6.60985 31.9023 6.96576 31.9096 7.76506C31.9169 8.64817 31.9108 9.5325 31.9108 10.48C32.8291 10.48 33.696 10.4764 34.5618 10.48C35.4764 10.4836 35.8061 10.8104 35.8098 11.7215C35.8134 12.8524 35.8159 13.9821 35.8098 15.113C35.8049 15.9439 35.4581 16.2889 34.6253 16.2949C33.7534 16.3022 32.8816 16.2962 31.9132 16.2962C31.9132 17.1525 31.9132 17.9907 31.9132 18.8289C31.9108 19.8663 31.6104 20.1736 30.5859 20.1748C29.5309 20.1772 28.4758 20.176 27.4196 20.1748C26.3548 20.1736 26.0666 19.8796 26.0641 18.7961C26.0641 17.9907 26.0641 17.1853 26.0641 16.2962C25.1691 16.2962 24.3058 16.2986 23.4412 16.2962C22.4888 16.2925 22.1676 15.973 22.1652 15.0219C22.1627 13.891 22.1578 12.7613 22.1664 11.6304C22.1725 10.8371 22.5242 10.4885 23.3203 10.4812C24.2093 10.4727 25.0995 10.4788 26.0629 10.4788V10.4812ZM33.8353 12.4199C32.9341 12.4199 32.0854 12.4224 31.2367 12.4199C30.2867 12.4163 29.9656 12.0956 29.9631 11.1457C29.9607 10.2869 29.9631 9.42804 29.9631 8.57043H28.013C28.013 9.45962 28.0167 10.3209 28.013 11.1833C28.0081 12.0883 27.6772 12.4163 26.7614 12.4199C25.8956 12.4236 25.0311 12.4199 24.1543 12.4199V14.3599C25.0433 14.3599 25.892 14.3574 26.7406 14.3599C27.6907 14.3635 28.0106 14.6842 28.013 15.6353C28.0155 16.4942 28.013 17.3518 28.013 18.2094H29.9631C29.9631 17.3202 29.9595 16.4577 29.9631 15.5965C29.968 14.6891 30.2965 14.3647 31.2135 14.3611C32.0793 14.3574 32.9451 14.3611 33.8353 14.3611V12.4199Z" fill="#F49337"/>
</svg>
