<svg width="65" height="58" viewBox="0 0 65 58" fill="none" xmlns="http://www.w3.org/2000/svg">
<path d="M27.5181 58C26.1726 58 24.8877 57.5719 23.804 56.7629C21.493 55.0385 20.8725 52.5886 21.8517 49.0533L22.0454 48.3551L21.0934 48.3004C20.9376 48.2913 20.7877 48.2807 20.6379 48.2746C20.2807 48.261 19.9205 48.261 19.5724 48.2595C18.8248 48.2595 18.118 48.2595 17.443 48.1304C14.8065 47.6295 12.9299 45.213 13.0767 42.5111C13.2235 39.8122 15.2954 37.64 18.003 37.344C18.0862 37.3349 18.1694 37.3182 18.2754 37.297L18.4207 37.2682L19.0382 37.1513L18.4782 35.0505C18.1982 33.997 17.9197 32.9527 17.6397 31.9099L10.186 4.191C9.86662 3.0055 9.51247 2.73227 8.28656 2.73075C8.28656 2.73075 4.89339 2.7353 4.27136 2.7353C3.37237 2.7353 2.47186 2.73227 1.57286 2.72468C0.981103 2.72013 0.483175 2.48181 0.207726 2.07349C-0.025347 1.72892 -0.0631835 1.30845 0.0987566 0.887987C0.319721 0.318765 0.696573 0.0288406 1.22023 0.0242868L2.0269 0.0182151C3.11356 0.00910756 4.20023 0 5.28689 0C6.81851 0 8.08527 0.0182151 9.2688 0.0576812C10.805 0.109291 12.2064 1.33578 12.6786 3.04041C13.3778 5.56624 14.0922 8.23172 14.802 10.9625C14.9912 11.6896 15.4044 12.0159 16.1399 12.0174C25.8654 12.0448 35.7528 12.0873 45.3163 12.1298L46.7587 12.1358C48.1889 12.1419 49.6191 12.154 51.0478 12.1662C53.0774 12.1829 55.175 12.2011 57.2409 12.2011C58.5213 12.2011 59.6806 12.195 60.7854 12.1814H60.914C63.1918 12.1814 64.3829 12.9889 65.0004 14.9652V16.1052C64.846 16.7564 64.6901 17.4091 64.5342 18.0603C64.1786 19.5448 63.8244 21.0294 63.4794 22.5154C62.9315 24.8758 62.3897 27.2362 61.8463 29.5965C61.3166 31.8992 60.7869 34.2019 60.2527 36.5046C59.7139 38.8271 58.1399 40.0551 55.6987 40.0551C47.7545 40.052 39.8119 40.049 31.8708 40.0444L19.0684 40.0368C18.8611 40.0368 18.6174 40.0384 18.3753 40.0581C16.8785 40.181 15.8024 41.3483 15.819 42.8344C15.8357 44.3311 16.9133 45.4452 18.4388 45.5409C18.6205 45.553 18.8036 45.5545 18.9852 45.5545H56.8474L57.1894 45.5515C57.2606 45.5515 57.3317 45.5515 57.4028 45.556C58.1081 45.5879 58.6257 45.9689 58.7861 46.5761C58.9481 47.1893 58.6968 47.7449 58.0793 48.1395C58.0385 48.1654 57.9976 48.1896 57.9446 48.22L57.3907 48.5448L57.5996 49.0199C58.3608 50.7534 58.4214 52.3958 57.7872 54.0443C57.3347 55.2207 56.5674 56.1876 55.5065 56.9162C54.4788 57.622 53.2696 57.9954 52.0073 57.9954C50.7451 57.9954 49.5359 57.6205 48.5158 56.9116C46.0595 55.2055 45.4314 52.9225 46.347 49.0351L46.5165 48.3171H32.7894L33.1345 49.1292C33.8776 50.8764 33.9079 52.5233 33.2299 54.1657C32.738 55.3558 31.9328 56.3166 30.8371 57.0209C29.8443 57.6585 28.6971 57.9954 27.515 57.9954L27.5181 58ZM27.4606 48.2792C25.5748 48.3126 24.0341 49.8776 24.028 51.7704C24.025 52.7146 24.3822 53.5965 25.0345 54.2522C25.6868 54.908 26.5646 55.2692 27.506 55.2692C28.4549 55.2677 29.3373 54.8974 29.9986 54.2264C30.654 53.5631 31.0096 52.6857 31.0021 51.7583C30.9854 49.873 29.3902 48.2792 27.5181 48.2792H27.459H27.4606ZM52.0089 48.2792C50.1246 48.2853 48.5657 49.8335 48.5355 51.7325C48.5203 52.6721 48.8699 53.557 49.5192 54.2234C50.17 54.8913 51.0463 55.2632 51.9877 55.2708C53.9612 55.2708 55.4928 53.7452 55.5019 51.7977C55.5065 50.8642 55.1417 49.9823 54.4773 49.3129C53.8159 48.6465 52.9427 48.2792 52.0194 48.2792H52.0089ZM19.5482 27.9891C19.5437 28.0194 19.5391 28.0452 19.5346 28.0665C19.5164 28.1575 19.4907 28.2942 19.5346 28.4596L19.9584 30.0519C20.4881 32.048 21.0359 34.1109 21.6247 36.1297C21.7881 36.6883 22.504 37.2621 23.07 37.2894C23.7692 37.3213 24.5139 37.3349 25.481 37.3349C25.9108 37.3349 26.3436 37.3319 26.7765 37.3289C27.2124 37.3258 27.6497 37.3228 28.0886 37.3228H28.6032L28.6653 36.8097C28.6713 36.7642 28.6774 36.7278 28.6819 36.6989C28.6955 36.617 28.7122 36.5137 28.6971 36.3893L28.5851 35.5301C28.2778 33.1652 27.9615 30.7183 27.624 28.3154C27.5559 27.8312 26.9732 27.5109 26.5858 27.4957C26.2377 27.4806 25.8699 27.4745 25.3917 27.4745C25.1798 27.4745 24.3398 27.479 24.131 27.479H19.6118L19.5467 27.9891H19.5482ZM41.1498 37.3319H43.7817C44.7987 37.3319 45.9974 37.3319 47.1809 37.3122C47.7031 37.3046 48.0163 36.6868 48.0602 36.3726C48.3402 34.4129 48.6006 32.4214 48.8306 30.6652C48.9048 30.1005 48.9713 29.5358 49.0394 28.9605L49.2135 27.5079H41.1498V37.3319ZM56.4841 27.4806C55.3158 27.4806 54.0581 27.4836 52.7732 27.5064C52.1829 27.517 51.8893 28.2714 51.8484 28.5461C51.6471 29.9047 51.4686 31.2875 51.2945 32.6248L51.2158 33.232C51.1144 34.0076 51.0175 34.7848 50.9177 35.5802L50.6982 37.3228H51.3581C51.8182 37.3228 52.2737 37.3228 52.7247 37.3258C53.1697 37.3273 53.6101 37.3289 54.0475 37.3289C54.8647 37.3289 55.5276 37.3228 56.1345 37.3122C56.8625 37.2985 57.4104 36.8037 57.5981 35.9901C57.7328 35.4072 58.0884 33.8483 58.0884 33.8483L59.5429 27.4836H56.4811L56.4841 27.4806ZM31.5757 37.3H38.3575V27.517H30.2741L31.5757 37.3ZM41.1634 24.7559H44.3432C45.7356 24.7559 47.2339 24.7544 48.7625 24.7331C49.2967 24.7255 49.6721 24.0774 49.725 23.7313C49.9324 22.3439 50.1155 20.9322 50.2926 19.5676L50.3683 18.9817C50.4697 18.2075 50.565 17.4334 50.6649 16.641L50.8859 14.8818H41.1649V24.7544L41.1634 24.7559ZM54.553 14.8939C53.937 14.8939 53.5829 15.237 53.4981 15.9124C53.3498 17.0888 53.1924 18.2637 53.035 19.4386C52.9411 20.1429 52.8458 20.8472 52.7535 21.553C52.6793 22.1177 52.6127 22.6854 52.5416 23.2729L52.363 24.7559H55.34C56.634 24.7559 58.0248 24.7559 59.4278 24.7407C59.8455 24.7361 60.2557 24.3248 60.3435 23.9574C60.8853 21.6714 61.4241 19.3445 61.9447 17.0934L62.3927 15.155L61.8418 15.0138C61.8161 15.0077 61.7934 15.0002 61.7737 14.9941C61.701 14.9713 61.6012 14.941 61.4755 14.9394L59.2553 14.9273C57.6934 14.9197 56.1315 14.9106 54.5696 14.8954H54.5515L54.553 14.8939ZM29.9093 24.7331H38.359V14.8393H28.5926L29.9109 24.7331H29.9093ZM18.516 24.7179H26.9551L27.0035 24.1867C27.0065 24.1548 27.0111 24.1275 27.0141 24.1001C27.0262 24.0106 27.0413 23.8998 27.0247 23.7692L26.9309 23.0452C26.6161 20.6135 26.2907 18.0982 25.9441 15.6271C25.876 15.1459 25.2993 14.821 24.9164 14.8013C24.4109 14.774 23.913 14.7709 23.4499 14.7709H15.8417L18.516 24.7179Z" fill="#F49337"/>
</svg>
