<svg width="62" height="62" viewBox="0 0 62 62" fill="none" xmlns="http://www.w3.org/2000/svg">
<path d="M0 24.2754V19.446C0.579622 18.533 1.54044 18.9333 2.36157 18.7894V16.4963C1.51694 16.321 0.530015 16.8116 0 15.7913C0 14.3118 0 12.8324 0 11.353C0.328975 11.0953 0.618786 10.7303 0.990841 10.5969C10.7622 7.08083 20.5387 3.58435 30.3257 0.111417C30.733 -0.0324706 31.2774 -0.0390109 31.6834 0.103569C37.1441 2.02382 42.5905 3.9807 48.0408 5.92972C52.3683 7.47717 56.6933 9.02985 61.0235 10.5708C61.5535 10.7591 61.9817 11.0077 61.9856 11.6408C61.9922 12.924 62.0039 14.2072 61.9791 15.4904C61.9674 16.117 61.6123 16.4296 60.9817 16.4492C60.5366 16.4623 60.0901 16.4519 59.6502 16.4519V18.826C60.0549 18.826 60.3995 18.8221 60.7442 18.826C61.6841 18.8391 61.9843 19.1413 61.9883 20.0909C61.9935 21.2224 61.9896 22.3526 61.9883 23.4841C61.9883 24.7385 61.7755 24.9491 60.5079 24.9491C59.5849 24.9491 58.662 24.9491 57.7638 24.9491C57.7325 25.0982 57.7155 25.1414 57.7155 25.1832C57.7129 25.9445 57.7103 26.7058 57.709 27.4671C57.709 28.627 57.1576 29.2976 56.055 29.4789V48.344C56.1959 48.3584 56.2808 48.3727 56.3657 48.3754C57.5184 48.4172 57.7077 48.6134 57.709 49.775C57.709 50.7704 57.709 51.7646 57.709 52.8346C58.7638 52.8346 59.7559 52.8307 60.7481 52.8346C61.6945 52.8385 61.9843 53.1289 61.9856 54.0851C61.9896 56.2604 61.9726 58.4357 61.9961 60.6111C62.0026 61.2023 61.8577 61.668 61.3551 61.995H0V53.5108C0.284589 52.9615 0.742804 52.8032 1.3407 52.8254C2.30805 52.8607 3.27669 52.8346 4.29887 52.8346C4.29887 51.8444 4.29887 50.9366 4.29887 50.0288C4.29887 48.5323 4.355 48.4722 5.84061 48.3544C5.87847 48.3518 5.91371 48.3139 5.95157 48.2916C5.95157 42.0103 5.95157 35.7276 5.95157 29.4528C4.8489 29.342 4.29756 28.732 4.29756 27.6228C4.29756 26.7425 4.29756 25.8634 4.29756 24.9478C3.24145 24.9478 2.28846 24.9216 1.3394 24.9569C0.740193 24.9805 0.281978 24.8222 0 24.2715V24.2754ZM46.6061 48.3191V29.4711C45.4982 29.3263 44.9442 28.6954 44.9442 27.5783C44.9442 26.7176 44.9442 25.8582 44.9442 24.9857H17.0662C17.0662 25.8177 17.0662 26.6156 17.0662 27.4135C17.0662 28.5951 16.5079 29.2875 15.3913 29.4907V48.3322C15.5232 48.3505 15.6263 48.3727 15.7307 48.378C16.8926 48.4355 17.0662 48.616 17.0662 49.7855C17.0662 50.7796 17.0662 51.7737 17.0662 52.794H44.9442V50.2145C44.9442 49.0965 45.4982 48.4647 46.6061 48.3191ZM60.1671 14.597C60.1671 13.977 60.1293 13.4328 60.1776 12.8952C60.2246 12.3707 60.0353 12.1496 59.534 11.9704C50.2013 8.64921 40.879 5.30185 31.5463 1.98196C31.2161 1.86423 30.7709 1.87862 30.4367 1.99635C25.2044 3.84466 19.9826 5.72043 14.7569 7.58967C10.6342 9.06517 6.51031 10.5381 2.39029 12.024C2.19055 12.096 1.88247 12.2634 1.87202 12.406C1.81981 13.132 1.84722 13.8632 1.84722 14.597H60.1671ZM1.87725 60.0996H60.1228V54.713H1.87725V60.0996ZM1.87855 23.0851H60.128V20.6966H1.87855V23.0851ZM4.28581 16.4898V18.7698H57.7429V16.4898H4.28581ZM13.4814 48.3492V29.4619H7.88104V48.3492H13.4814ZM48.529 29.4436V48.327H54.1255V29.4436H48.529ZM15.2125 25.0001H6.1748V27.5443H15.2112V25.0001H15.2125ZM55.85 27.5495V24.9962H46.8149V27.5495H55.85ZM15.2125 50.259H6.17611V52.8006H15.2125V50.259ZM55.8356 52.811V50.2459H46.8097V52.811H55.8356Z" fill="#F49337"/>
<path d="M40.5514 38.9405C40.5383 44.2369 36.2447 48.492 30.9419 48.4646C25.6848 48.4371 21.4212 44.1283 21.4565 38.8803C21.4917 33.5709 25.724 29.3222 30.9706 29.3262C36.3191 29.3301 40.5644 33.5918 40.5514 38.9418V38.9405ZM30.9732 31.1535C26.7331 31.1588 23.2697 34.6369 23.2789 38.8816C23.288 43.1708 26.6992 46.6228 30.9406 46.6385C35.2812 46.6542 38.7355 43.2113 38.729 38.879C38.7224 34.5794 35.2773 31.1483 30.9732 31.1535Z" fill="#F49337"/>
<path d="M31.7291 44.28C31.7134 44.4723 31.6925 44.7287 31.669 45.0178H30.3975C30.3727 44.7052 30.3505 44.4121 30.3244 44.0851C29.0516 43.8628 27.9015 43.4076 26.9433 42.4762C27.2827 42.0524 27.6065 41.6482 27.9054 41.2741C28.7044 41.6953 29.4733 42.1008 30.3375 42.5573V39.5579C28.7083 39.07 27.1496 38.5167 27.3506 36.3427C27.4772 34.9744 28.5072 34.0143 30.3218 33.6232C30.344 33.3655 30.3688 33.0934 30.3962 32.7808H31.6599C31.6899 33.0568 31.72 33.3275 31.7526 33.6258C32.8779 33.839 33.9301 34.2 34.7995 35.045C34.4706 35.4885 34.152 35.9175 33.8661 36.3021C33.1703 35.9371 32.528 35.5997 31.72 35.1745C31.72 36.1975 31.7069 37.032 31.7369 37.8652C31.7408 37.9647 31.9562 38.0915 32.0959 38.1452C32.5594 38.3257 33.045 38.4513 33.5019 38.6462C35.7525 39.605 35.3792 42.5207 33.8348 43.4206C33.2108 43.7843 32.4889 43.9779 31.7291 44.2813V44.28ZM31.7565 42.4697C32.6951 42.3546 33.1938 41.9307 33.2238 41.2545C33.2539 40.5821 32.7813 40.1648 31.7565 39.9817V42.4697ZM30.3166 37.6533V35.2923C29.5842 35.5212 29.1573 35.9999 29.1952 36.5676C29.2383 37.2151 29.7083 37.4611 30.3166 37.6533Z" fill="#F49337"/>
</svg>
