<svg width="51" height="51" viewBox="0 0 51 51" fill="none" xmlns="http://www.w3.org/2000/svg">
<path d="M5.18717 51C4.32599 50.6028 4.07552 49.9192 4.07851 48.9941C4.10246 40.8635 4.09248 32.7319 4.09248 24.6013C4.09248 24.3229 4.11144 24.0903 3.79012 23.8987C1.29541 22.4038 0.0410632 20.1792 0.0121245 17.2751C-0.00683534 15.3999 -0.00284379 13.5247 0.0191097 11.6495C0.0231013 11.3142 0.0979428 10.9489 0.24563 10.6495C1.84624 7.41103 3.4708 4.18555 5.08239 0.953075C5.40471 0.304385 5.90864 0 6.63211 0C19.2095 0.00399194 31.7858 0.00498992 44.3632 0C45.1096 0 45.6205 0.317359 45.9429 0.987007C46.3241 1.77841 46.7252 2.55983 47.1204 3.34425C48.4136 5.91605 49.7079 8.48786 51.0011 11.0597V18.2312C50.9692 18.34 50.9263 18.4477 50.9073 18.5595C50.5122 20.8489 49.3327 22.6153 47.3489 23.8219C47.0206 24.0215 46.9078 24.2191 46.9088 24.5983C46.9208 32.7299 46.9088 40.8625 46.9318 48.9941C46.9348 49.9192 46.6823 50.6018 45.8231 51H5.18717ZM25.5161 21.9427C22.3508 25.9216 16.5152 25.8408 13.4856 21.9347C11.855 23.9776 9.71657 24.9496 7.11209 24.9137V47.9731H16.0432C16.0432 45.2456 16.0362 42.5581 16.0472 39.8695C16.0502 39.0242 16.0442 38.1729 16.138 37.3356C16.7327 32.0583 21.9207 28.241 27.1267 29.225C31.7689 30.1022 34.9531 33.9265 34.9641 38.6499C34.9711 41.588 34.9651 44.5261 34.9651 47.4651C34.9651 47.6398 34.9651 47.8144 34.9651 47.9881H43.8992V24.9047C42.6448 24.9396 41.4673 24.7221 40.3507 24.2031C39.2201 23.6772 38.2861 22.9047 37.5157 21.9237C34.4791 25.8099 28.7323 25.9586 25.5151 21.9437L25.5161 21.9427ZM47.0226 9.93693C47.0016 9.8521 46.9976 9.78723 46.9707 9.73334C45.891 7.56772 44.8153 5.40009 43.7146 3.24545C43.6447 3.10972 43.3813 3.00094 43.2077 3.00094C31.4086 2.98996 19.6096 2.99196 7.81061 2.98298C7.49628 2.98298 7.3456 3.08677 7.21088 3.36021C6.20002 5.41207 5.1732 7.45594 4.15336 9.50281C4.08949 9.63055 4.0386 9.76528 3.96376 9.93693H47.0226ZM31.9605 47.9931C31.9675 47.8683 31.9764 47.7875 31.9764 47.7067C31.9764 44.6049 31.9814 41.5032 31.9685 38.4024C31.9665 37.9913 31.9126 37.5731 31.8218 37.1719C31.0953 33.9464 28.0837 31.7499 24.8874 32.0982C21.5126 32.4654 19.0408 35.1979 19.0309 38.5901C19.0219 41.575 19.0289 44.561 19.0309 47.547C19.0309 47.6907 19.0468 47.8344 19.0568 47.9941H31.9595L31.9605 47.9931ZM2.9968 12.9678C2.9968 14.4728 2.99082 15.9438 3.00179 17.4158C3.00379 17.7282 3.04171 18.0456 3.10258 18.3529C3.5177 20.4497 5.45859 21.9666 7.64297 21.9117C9.77445 21.8589 11.7403 20.2162 11.9249 18.1254C12.0726 16.4468 11.9758 14.7472 11.9848 13.0566C11.9848 13.0327 11.9488 13.0077 11.9179 12.9678H2.9968ZM27.003 12.9758C27.003 14.5406 26.974 16.0646 27.01 17.5875C27.0638 19.9288 29.0287 21.8569 31.3687 21.9127C33.7906 21.9706 35.8482 20.1553 35.973 17.7591C36.0518 16.2372 36.0019 14.7083 36.0069 13.1824C36.0069 13.1205 35.9839 13.0586 35.968 12.9758H27.003ZM15.0263 12.9738C15.0263 14.6205 14.9635 16.2143 15.0413 17.801C15.1501 20.0046 17.0351 21.795 19.2364 21.9068C21.5256 22.0225 23.6231 20.4637 23.8926 18.2292C24.0851 16.6254 23.9824 14.9867 24.0093 13.363C24.0113 13.2363 23.9913 13.1095 23.9804 12.9728L15.0263 12.9738ZM39.0245 12.9738C39.0245 14.5895 38.9646 16.1654 39.0385 17.7362C39.1443 19.9846 41.0023 21.785 43.2236 21.9068C45.5317 22.0325 47.6463 20.4697 47.8947 18.1953C48.0823 16.4817 47.9316 14.7312 47.9316 12.9738H39.0245Z" fill="#F49337"/>
</svg>
