<svg width="76" height="48" viewBox="0 0 76 48" fill="none" xmlns="http://www.w3.org/2000/svg">
<path d="M0 40.4313C0.456708 39.7735 1.08732 39.6022 1.87884 39.6119C5.14894 39.6474 8.41903 39.6167 11.6875 39.6377C12.2109 39.6409 12.4043 39.5052 12.5245 38.9621C13.2722 35.5826 16.3115 33.189 19.775 33.1858C23.245 33.1825 26.2843 35.5551 27.0384 38.9427C27.1717 39.5424 27.4025 39.649 27.9437 39.6393C29.4569 39.6086 30.97 39.6345 32.4832 39.6264C33.6453 39.6199 34.1832 39.1092 34.193 37.9649C34.2092 36.0594 34.1881 34.1539 34.2027 32.2484C34.2076 31.5631 33.9199 31.1089 33.3527 30.721C28.337 27.285 22.7363 25.5249 16.7145 24.9899C15.7182 24.901 14.9121 24.5713 14.2035 23.8699C11.8322 21.5264 9.12929 19.6193 6.17613 18.0661C5.7698 17.8527 5.26596 17.759 4.7995 17.7347C3.8292 17.6846 2.85239 17.6782 1.88209 17.7331C1.08732 17.7784 0.459959 17.5699 0.0016253 16.9153V15.9488C0.458334 15.291 1.08732 15.0825 1.88047 15.131C2.76788 15.186 3.66667 15.2005 4.55245 15.1294C5.70804 15.0357 6.70272 15.3589 7.6909 15.931C10.6408 17.6378 13.4217 19.5627 15.9182 21.8884C16.2156 22.1664 16.7178 22.3183 17.1404 22.3604C23.4888 22.9778 29.3447 24.9495 34.6692 28.4777C36.1352 29.4491 36.8341 30.7146 36.8 32.4488C36.7642 34.2719 36.8 36.0966 36.7902 37.9213C36.7756 40.5331 35.0983 42.1946 32.4799 42.2026C30.6986 42.2075 28.9173 42.2026 27.1116 42.2026C27.0254 42.4596 26.9474 42.6843 26.871 42.9105C25.8406 45.949 23.0093 47.9919 19.814 48C16.6138 48.0097 13.7451 45.9911 12.7391 42.9542C12.5457 42.3707 12.3132 42.1784 11.6859 42.1849C8.41741 42.222 5.14894 42.1816 1.88047 42.2172C1.08895 42.2253 0.459959 42.0507 0.0016253 41.3978V40.4313H0ZM19.762 35.762C17.0997 35.7717 14.93 37.9294 14.9218 40.5751C14.9137 43.2548 17.1095 45.4335 19.8075 45.4238C22.4681 45.4141 24.6395 43.2548 24.6476 40.6091C24.6557 37.9278 22.4616 35.7523 19.7604 35.762H19.762Z" fill="#F49337"/>
<path d="M47.1937 0C47.8568 0.454157 48.0307 1.07963 48.0193 1.86673C47.9803 4.62723 48.0047 7.38772 48.0047 10.2597C49.8202 9.81367 51.5625 9.38698 53.3048 8.95707C54.0833 8.76474 54.896 8.39139 55.5266 9.23506C56.1312 10.0432 55.5721 10.6977 55.182 11.3652C53.9062 13.5423 52.6287 15.7209 51.3512 17.898C51.2553 18.0596 51.1659 18.2261 51.057 18.3796C50.6052 19.0116 49.8998 19.1829 49.2887 18.8176C48.6857 18.4572 48.4728 17.7331 48.8482 17.064C49.5991 15.7306 50.3906 14.4199 51.1643 13.0994C51.3398 12.8004 51.5088 12.4966 51.7429 12.0861C51.4585 12.12 51.265 12.1249 51.083 12.1685C49.825 12.4723 48.5703 12.7875 47.3123 13.0914C46.0966 13.3839 45.4205 12.878 45.414 11.6497C45.4042 9.52921 45.4107 7.41035 45.4107 5.28988C45.4107 5.0329 45.4107 4.77592 45.4107 4.3557C45.0499 4.68703 44.8159 4.89552 44.59 5.11048C42.664 6.95458 40.7413 8.8003 38.8153 10.6428C37.9197 11.4994 37.3606 11.5042 36.4505 10.6654C34.4367 8.80676 32.4262 6.94326 30.2597 5.14118C30.4645 6.30648 30.666 7.47177 30.8773 8.63706C31.0496 9.58578 31.2365 10.5329 31.4072 11.4832C31.5876 12.4853 31.1715 13.059 30.1264 13.2255C27.7291 13.6085 25.3302 13.9819 22.8207 14.3746C23.006 14.5783 23.1247 14.7399 23.2726 14.8692C25.1108 16.4903 26.9734 18.0855 28.7774 19.7437C29.1334 20.0702 29.4584 20.6342 29.4633 21.0916C29.4715 22.084 28.2541 22.5559 27.4138 21.9337C26.8954 21.5506 26.4321 21.0949 25.9462 20.6682C23.7 18.6948 21.4587 16.7181 19.2061 14.7512C18.7331 14.3391 18.3544 13.893 18.5348 13.2287C18.7217 12.5402 19.2565 12.3107 19.9326 12.2105C22.655 11.8097 25.3725 11.3733 28.0916 10.9466C28.246 10.9224 28.3971 10.8691 28.6344 10.8076C28.3061 8.99586 27.9859 7.20832 27.6592 5.42241C27.4333 4.18277 27.2204 2.94151 26.962 1.70834C26.7978 0.924476 27.1863 0.437995 27.7324 0C28.0574 0 28.3809 0 28.7059 0C31.6623 2.72171 34.6171 5.4418 37.6093 8.19583C40.5105 5.43534 43.3661 2.71686 46.2218 0H47.1953H47.1937Z" fill="#F49337"/>
<path d="M47.9446 42.2026C46.095 42.2026 44.3121 42.2091 42.5291 42.2026C39.9514 42.1929 38.2822 40.5266 38.2741 37.9568C38.2676 36.0238 38.279 34.0909 38.2708 32.1579C38.2643 30.6758 38.8608 29.5364 40.0993 28.6862C44.9931 25.3261 50.4167 23.3656 56.2856 22.5527C56.3929 22.5381 56.5018 22.5187 56.6074 22.522C58.132 22.5705 59.2453 21.869 60.3537 20.854C62.7445 18.6657 65.4588 16.8959 68.3664 15.4349C68.711 15.2619 69.1287 15.1666 69.5155 15.1569C70.8125 15.1229 72.1095 15.1407 73.4065 15.1456C74.4255 15.1488 75.0367 15.6256 75.0497 16.4127C75.0627 17.203 74.445 17.7105 73.4439 17.7186C72.6605 17.725 71.8706 17.7816 71.0937 17.7057C69.9284 17.5909 68.9418 17.9529 67.9666 18.5348C65.3629 20.088 62.8941 21.8125 60.7519 23.962C60.1116 24.6053 59.3509 24.901 58.4456 24.9786C52.4499 25.4974 46.8719 27.2365 41.8514 30.6111C41.1509 31.0815 40.8274 31.6132 40.8502 32.4666C40.9006 34.2913 40.8599 36.1176 40.8681 37.9423C40.8729 39.1044 41.3865 39.6183 42.5454 39.6248C44.299 39.6345 46.0511 39.6264 47.7837 39.6264C49.3781 35.0541 51.7998 33.0678 55.5786 33.1906C59.0795 33.3038 61.5873 35.5422 62.725 39.6264C63.5881 39.6264 64.4755 39.6264 65.3613 39.6264C68.0365 39.6264 70.7134 39.6248 73.3886 39.6264C74.4174 39.6264 75.0237 40.0919 75.0497 40.8757C75.0773 41.6887 74.4434 42.1994 73.3805 42.1994C70.0015 42.2026 66.6241 42.2107 63.2451 42.1897C62.7299 42.1865 62.5203 42.3287 62.3528 42.8394C61.3224 45.9911 58.4668 48.0226 55.1918 47.9984C51.9688 47.9742 49.1652 45.9005 48.1461 42.7845C48.0876 42.6067 48.0226 42.4305 47.9413 42.201L47.9446 42.2026ZM50.4183 40.58C50.415 43.2419 52.5523 45.4011 55.2145 45.4238C57.906 45.4464 60.1311 43.2693 60.1392 40.6042C60.1473 37.9423 57.9288 35.7491 55.2373 35.762C52.5686 35.7749 50.4215 37.9213 50.4183 40.58Z" fill="#F49337"/>
<path d="M69.9105 28.1351C69.0475 28.1351 68.1812 28.0979 67.3198 28.1432C65.4149 28.2418 63.7977 27.4741 62.2423 26.5302C61.6182 26.152 61.4654 25.4441 61.797 24.8445C62.1286 24.2433 62.8664 23.9103 63.4467 24.3144C65.5076 25.7528 67.8317 25.5879 70.1478 25.5621C71.1993 25.5492 72.2525 25.5443 73.3041 25.5686C74.1558 25.5879 74.7002 26.0809 74.7279 26.7969C74.7555 27.529 74.1769 28.1028 73.309 28.1254C72.1761 28.1545 71.0433 28.1319 69.9089 28.1319V28.1351H69.9105Z" fill="#F49337"/>
<path d="M5.15706 28.1351C4.07787 28.1351 2.99867 28.1448 1.91947 28.1319C0.921542 28.1189 0.313682 27.6017 0.329934 26.813C0.346187 26.0453 0.918292 25.5702 1.89347 25.5637C3.72843 25.5508 5.56339 25.5281 7.39672 25.5702C8.6222 25.5993 9.7469 25.3552 10.7871 24.7103C11.0601 24.5406 11.3511 24.3903 11.6501 24.274C12.3344 24.0057 12.8886 24.2352 13.2413 24.8348C13.6054 25.4554 13.4721 26.0857 12.8805 26.4655C11.421 27.4029 9.88505 28.1707 8.07122 28.1399C7.10092 28.1238 6.12899 28.1367 5.15706 28.1367V28.1351Z" fill="#F49337"/>
</svg>
