<svg width="68" height="48" viewBox="0 0 68 48" fill="none" xmlns="http://www.w3.org/2000/svg">
<path d="M0.00231844 33.5085V2.83003C0.561063 1.04634 1.67392 -0.00233689 3.61909 3.91046e-06C16.6997 0.00468551 29.7781 4.07144e-06 42.8587 0.00702647C45.052 0.00702647 46.4547 1.4396 46.4709 3.66569C46.4848 5.60856 46.4732 7.55142 46.4732 9.49194C46.4732 9.7307 46.4732 9.97181 46.4732 10.2878C46.7792 10.2878 47.018 10.2878 47.2545 10.2878C50.3079 10.2878 53.3636 10.3042 56.417 10.2808C57.6713 10.2714 58.6914 10.6928 59.5237 11.6455C61.9975 14.4755 64.4829 17.2938 66.9706 20.1121C67.6661 20.8987 68.0046 21.7952 68 22.8556C67.9884 27.7221 68 32.5909 67.993 37.4575C67.9907 39.714 66.5741 41.1349 64.3391 41.1466C63.0547 41.1536 61.7726 41.1583 60.4882 41.1419C60.1265 41.1372 59.999 41.2425 59.8622 41.6194C59.4843 42.6564 59.1203 43.7355 58.5245 44.6461C55.9278 48.6114 49.9277 49.1193 46.6216 45.7369C45.3719 44.4565 44.6115 42.942 44.273 41.1817H23.7316C23.6991 41.2894 23.6667 41.3713 23.6504 41.4532C22.9804 44.7701 20.5623 47.2209 17.2979 47.8623C13.811 48.5458 9.8928 46.6591 8.44377 42.7664C8.24207 42.2257 8.17483 41.4602 7.78765 41.2144C7.35874 40.9429 6.63075 41.1489 6.03259 41.1466C3.66778 41.1395 2.27207 39.7421 2.2628 37.3662C2.25816 36.3667 2.2628 35.3671 2.2628 34.3138C1.38179 34.3021 0.496147 34.4168 0 33.5109L0.00231844 33.5085ZM44.2081 31.973V31.2239C44.2081 22.1393 44.2081 13.057 44.2081 3.97234C44.2081 2.6217 43.8673 2.28462 42.511 2.28462C29.6575 2.28462 16.8018 2.28462 3.94831 2.28462C2.59202 2.28462 2.2628 2.61468 2.2628 3.97936C2.2628 13.064 2.2628 22.1463 2.2628 31.2309C2.2628 31.4697 2.2628 31.7061 2.2628 31.973H44.2081ZM46.5126 12.6075V32.0104C46.7885 32.0104 47.0273 32.0104 47.2661 32.0104C48.9029 32.0104 50.5397 31.987 52.1766 32.0198C55.9556 32.0947 59.0554 34.6462 59.8645 38.3634C59.9619 38.8081 60.1497 38.876 60.5299 38.8713C61.7471 38.8549 62.9643 38.869 64.1792 38.8643C65.343 38.8619 65.7279 38.471 65.7302 37.2913C65.7325 34.2342 65.7302 31.1771 65.7302 28.1177C65.7302 27.9047 65.7302 27.6893 65.7302 27.4342C65.3685 27.4342 65.1042 27.4342 64.8399 27.4342C61.499 27.4342 58.1582 27.4412 54.8173 27.4342C52.3644 27.4271 50.9965 26.039 50.9942 23.5742C50.9918 20.159 50.9942 16.7437 50.9942 13.3309V12.6075H46.5103H46.5126ZM53.2593 12.5818V13.3191C53.2593 16.711 53.2593 20.1004 53.2593 23.4923C53.2593 24.7891 53.614 25.1425 54.9262 25.1449C58.288 25.1472 61.6497 25.1449 65.0092 25.1449C65.241 25.1449 65.4729 25.1191 65.7302 25.1027C65.7302 24.3115 65.7858 23.5929 65.7093 22.8907C65.663 22.4553 65.5146 21.9497 65.2387 21.629C62.7858 18.7873 60.3004 15.9689 57.7965 13.1717C57.5415 12.8861 57.1033 12.6333 56.7346 12.6099C55.6125 12.5373 54.4834 12.5841 53.257 12.5841L53.2593 12.5818ZM52.2021 34.3044C49.1023 34.2576 46.5288 36.788 46.4802 39.9293C46.4338 43.0496 48.9516 45.6549 52.0606 45.7018C55.1558 45.7486 57.7292 43.2158 57.7803 40.0721C57.8313 36.9448 55.3227 34.3512 52.2021 34.3044ZM15.9648 34.3044C12.8581 34.2435 10.2846 36.7552 10.222 39.9036C10.1617 43.0309 12.6587 45.6386 15.7724 45.6994C18.8675 45.7626 21.4456 43.2463 21.5175 40.0955C21.5893 36.9799 19.0785 34.3629 15.9625 34.3021L15.9648 34.3044ZM29.5115 34.3231V38.8222H37.3571V34.3231H29.5115ZM39.708 38.8596C41.1593 38.8596 42.5481 38.8736 43.9322 38.8409C44.0829 38.8362 44.324 38.5951 44.3634 38.4242C44.6926 36.9823 45.3117 35.7042 46.304 34.6111C46.3666 34.5408 46.3967 34.4402 46.4523 34.3372H39.7057V38.8596H39.708ZM27.1722 38.8596V34.3559H21.4711C22.6257 35.5989 23.3375 36.9565 23.6551 38.5272C23.6806 38.6606 23.9032 38.8432 24.0376 38.8479C25.0716 38.8736 26.1034 38.8619 27.1722 38.8619V38.8596ZM4.53256 34.3231C4.53256 35.4678 4.51169 36.5352 4.53951 37.6003C4.56038 38.4031 4.99856 38.8245 5.79379 38.8549C6.38963 38.8783 6.98779 38.8409 7.58131 38.869C7.94994 38.8854 8.04268 38.7192 8.14005 38.3891C8.36726 37.626 8.6107 36.8559 8.9631 36.149C9.28305 35.5123 9.75833 34.9552 10.1942 34.3231H4.53024H4.53256Z" fill="#F49337"/>
</svg>
